<mxfile host="app.diagrams.net" agent="Mozilla/5.0 (Windows NT 10.0; Win64; x64) AppleWebKit/537.36 (KHTML, like Gecko) Chrome/137.0.0.0 Safari/537.36" version="27.1.1">
  <diagram name="Page-1" id="_BkGOc8EpaVX4qtVllSP">
    <mxGraphModel dx="4016" dy="3524" grid="1" gridSize="10" guides="1" tooltips="1" connect="1" arrows="1" fold="1" page="1" pageScale="1" pageWidth="850" pageHeight="1100" math="0" shadow="0">
      <root>
        <mxCell id="0" />
        <mxCell id="1" parent="0" />
        <mxCell id="xaOBDBP3_dZCTzAAV_ms-1" style="edgeStyle=orthogonalEdgeStyle;rounded=0;orthogonalLoop=1;jettySize=auto;html=1;entryX=0.25;entryY=1;entryDx=0;entryDy=0;endArrow=block;endFill=0;exitX=0.5;exitY=0;exitDx=0;exitDy=0;endSize=15;fontColor=#000000;" edge="1" parent="1" source="xaOBDBP3_dZCTzAAV_ms-11" target="xaOBDBP3_dZCTzAAV_ms-9">
          <mxGeometry relative="1" as="geometry" />
        </mxCell>
        <mxCell id="xaOBDBP3_dZCTzAAV_ms-2" value="extends" style="edgeLabel;html=1;align=center;verticalAlign=middle;resizable=0;points=[];fontColor=#000000;" vertex="1" connectable="0" parent="xaOBDBP3_dZCTzAAV_ms-1">
          <mxGeometry x="-0.1831" y="1" relative="1" as="geometry">
            <mxPoint x="1" as="offset" />
          </mxGeometry>
        </mxCell>
        <mxCell id="xaOBDBP3_dZCTzAAV_ms-3" style="edgeStyle=orthogonalEdgeStyle;rounded=0;orthogonalLoop=1;jettySize=auto;html=1;entryX=0.75;entryY=1;entryDx=0;entryDy=0;exitX=0.5;exitY=0;exitDx=0;exitDy=0;endArrow=block;endFill=0;endSize=15;fontColor=#000000;" edge="1" parent="1" source="xaOBDBP3_dZCTzAAV_ms-13" target="xaOBDBP3_dZCTzAAV_ms-9">
          <mxGeometry relative="1" as="geometry" />
        </mxCell>
        <mxCell id="xaOBDBP3_dZCTzAAV_ms-4" value="extends" style="edgeLabel;html=1;align=center;verticalAlign=middle;resizable=0;points=[];fontColor=#000000;" vertex="1" connectable="0" parent="xaOBDBP3_dZCTzAAV_ms-3">
          <mxGeometry x="-0.1417" relative="1" as="geometry">
            <mxPoint as="offset" />
          </mxGeometry>
        </mxCell>
        <mxCell id="xaOBDBP3_dZCTzAAV_ms-5" style="edgeStyle=orthogonalEdgeStyle;rounded=0;orthogonalLoop=1;jettySize=auto;html=1;exitX=0;exitY=0.75;exitDx=0;exitDy=0;fontColor=#000000;" edge="1" parent="1" source="xaOBDBP3_dZCTzAAV_ms-88" target="xaOBDBP3_dZCTzAAV_ms-9">
          <mxGeometry relative="1" as="geometry">
            <mxPoint x="240" y="-580" as="sourcePoint" />
            <Array as="points">
              <mxPoint x="180" y="-1062" />
              <mxPoint x="180" y="50" />
            </Array>
          </mxGeometry>
        </mxCell>
        <mxCell id="xaOBDBP3_dZCTzAAV_ms-6" value="is for" style="edgeLabel;html=1;align=center;verticalAlign=middle;resizable=0;points=[];fontColor=#000000;" vertex="1" connectable="0" parent="xaOBDBP3_dZCTzAAV_ms-5">
          <mxGeometry x="-0.6425" y="4" relative="1" as="geometry">
            <mxPoint y="1" as="offset" />
          </mxGeometry>
        </mxCell>
        <mxCell id="xaOBDBP3_dZCTzAAV_ms-7" value="1" style="edgeLabel;html=1;align=center;verticalAlign=middle;resizable=0;points=[];fontColor=#000000;" vertex="1" connectable="0" parent="xaOBDBP3_dZCTzAAV_ms-5">
          <mxGeometry x="-0.9478" y="2" relative="1" as="geometry">
            <mxPoint as="offset" />
          </mxGeometry>
        </mxCell>
        <mxCell id="xaOBDBP3_dZCTzAAV_ms-8" value="1" style="edgeLabel;html=1;align=center;verticalAlign=middle;resizable=0;points=[];fontColor=#000000;" vertex="1" connectable="0" parent="xaOBDBP3_dZCTzAAV_ms-5">
          <mxGeometry x="0.9169" y="1" relative="1" as="geometry">
            <mxPoint as="offset" />
          </mxGeometry>
        </mxCell>
        <mxCell id="xaOBDBP3_dZCTzAAV_ms-9" value="&lt;span style=&quot;font-size: 12pt; font-family: Calibri, sans-serif; background-color: transparent; font-weight: 700; font-style: normal; font-variant: normal; text-decoration: none; vertical-align: baseline; white-space: pre-wrap;&quot; id=&quot;docs-internal-guid-3f319763-7fff-94b9-aead-58de4b7816bd&quot;&gt;Item&lt;/span&gt;" style="swimlane;html=1;fontStyle=1;align=center;verticalAlign=top;childLayout=stackLayout;horizontal=1;startSize=26;horizontalStack=0;resizeParent=1;resizeLast=0;collapsible=1;marginBottom=0;swimlaneFillColor=#ffffff;rounded=1;shadow=0;comic=0;labelBackgroundColor=none;strokeWidth=1;fillColor=#e1d5e7;fontFamily=Verdana;fontSize=12;sketch=1;curveFitting=1;jiggle=2;strokeColor=#9673a6;fontColor=#000000;" vertex="1" parent="1">
          <mxGeometry x="320" y="-20" width="160" height="100" as="geometry" />
        </mxCell>
        <mxCell id="xaOBDBP3_dZCTzAAV_ms-10" value="&lt;div&gt;-ItemID: Integer&lt;/div&gt;&lt;div&gt;-Title: String&lt;/div&gt;&lt;div&gt;&lt;br&gt;&lt;/div&gt;" style="text;html=1;align=center;verticalAlign=middle;resizable=0;points=[];autosize=1;strokeColor=none;fillColor=none;fontColor=#000000;" vertex="1" parent="xaOBDBP3_dZCTzAAV_ms-9">
          <mxGeometry y="26" width="160" height="60" as="geometry" />
        </mxCell>
        <mxCell id="xaOBDBP3_dZCTzAAV_ms-11" value="Lost Item" style="swimlane;html=1;fontStyle=1;align=center;verticalAlign=top;childLayout=stackLayout;horizontal=1;startSize=40;horizontalStack=0;resizeParent=1;resizeLast=0;collapsible=1;marginBottom=0;swimlaneFillColor=#ffffff;rounded=1;shadow=0;comic=0;labelBackgroundColor=none;strokeWidth=1;fillColor=#e1d5e7;fontFamily=Verdana;fontSize=12;sketch=1;curveFitting=1;jiggle=2;strokeColor=#9673a6;fontColor=#000000;" vertex="1" parent="1">
          <mxGeometry x="160" y="190" width="204" height="80" as="geometry" />
        </mxCell>
        <mxCell id="xaOBDBP3_dZCTzAAV_ms-12" value="-Lost Item Owner Username: String" style="text;html=1;align=center;verticalAlign=middle;resizable=0;points=[];autosize=1;strokeColor=none;fillColor=none;fontColor=#000000;" vertex="1" parent="xaOBDBP3_dZCTzAAV_ms-11">
          <mxGeometry y="40" width="204" height="30" as="geometry" />
        </mxCell>
        <mxCell id="xaOBDBP3_dZCTzAAV_ms-13" value="Found Item" style="swimlane;html=1;fontStyle=1;align=center;verticalAlign=top;childLayout=stackLayout;horizontal=1;startSize=50;horizontalStack=0;resizeParent=1;resizeLast=0;collapsible=1;marginBottom=0;swimlaneFillColor=#ffffff;rounded=1;shadow=0;comic=0;labelBackgroundColor=none;strokeWidth=1;fillColor=#e1d5e7;fontFamily=Verdana;fontSize=12;sketch=1;curveFitting=1;jiggle=2;strokeColor=#9673a6;fontColor=#000000;" vertex="1" parent="1">
          <mxGeometry x="440" y="185" width="160" height="90" as="geometry" />
        </mxCell>
        <mxCell id="xaOBDBP3_dZCTzAAV_ms-14" value="-Finder Username: String" style="text;html=1;align=center;verticalAlign=middle;resizable=0;points=[];autosize=1;strokeColor=none;fillColor=none;fontColor=#000000;" vertex="1" parent="xaOBDBP3_dZCTzAAV_ms-13">
          <mxGeometry y="50" width="160" height="30" as="geometry" />
        </mxCell>
        <mxCell id="xaOBDBP3_dZCTzAAV_ms-15" style="edgeStyle=orthogonalEdgeStyle;rounded=0;orthogonalLoop=1;jettySize=auto;html=1;entryX=1;entryY=0.25;entryDx=0;entryDy=0;fontColor=#000000;" edge="1" parent="1" source="xaOBDBP3_dZCTzAAV_ms-27" target="xaOBDBP3_dZCTzAAV_ms-55">
          <mxGeometry relative="1" as="geometry">
            <Array as="points">
              <mxPoint x="1100" y="490" />
              <mxPoint x="1100" y="490" />
            </Array>
          </mxGeometry>
        </mxCell>
        <mxCell id="xaOBDBP3_dZCTzAAV_ms-16" value="drops item off" style="edgeLabel;html=1;align=center;verticalAlign=middle;resizable=0;points=[];fontColor=#000000;" vertex="1" connectable="0" parent="xaOBDBP3_dZCTzAAV_ms-15">
          <mxGeometry x="-0.022" y="-2" relative="1" as="geometry">
            <mxPoint x="-1" as="offset" />
          </mxGeometry>
        </mxCell>
        <mxCell id="xaOBDBP3_dZCTzAAV_ms-17" value="1" style="edgeLabel;html=1;align=center;verticalAlign=middle;resizable=0;points=[];fontColor=#000000;" vertex="1" connectable="0" parent="xaOBDBP3_dZCTzAAV_ms-15">
          <mxGeometry x="-0.9328" y="-1" relative="1" as="geometry">
            <mxPoint y="1" as="offset" />
          </mxGeometry>
        </mxCell>
        <mxCell id="xaOBDBP3_dZCTzAAV_ms-18" value="1" style="edgeLabel;html=1;align=center;verticalAlign=middle;resizable=0;points=[];fontColor=#000000;" vertex="1" connectable="0" parent="xaOBDBP3_dZCTzAAV_ms-15">
          <mxGeometry x="0.8605" y="1" relative="1" as="geometry">
            <mxPoint as="offset" />
          </mxGeometry>
        </mxCell>
        <mxCell id="xaOBDBP3_dZCTzAAV_ms-19" style="edgeStyle=orthogonalEdgeStyle;rounded=0;orthogonalLoop=1;jettySize=auto;html=1;entryX=1.012;entryY=0.767;entryDx=0;entryDy=0;entryPerimeter=0;fontColor=#000000;" edge="1" parent="1" source="xaOBDBP3_dZCTzAAV_ms-27" target="xaOBDBP3_dZCTzAAV_ms-66">
          <mxGeometry relative="1" as="geometry">
            <Array as="points">
              <mxPoint x="1360" y="880" />
            </Array>
          </mxGeometry>
        </mxCell>
        <mxCell id="xaOBDBP3_dZCTzAAV_ms-20" value="arranges" style="edgeLabel;html=1;align=center;verticalAlign=middle;resizable=0;points=[];fontColor=#000000;" vertex="1" connectable="0" parent="xaOBDBP3_dZCTzAAV_ms-19">
          <mxGeometry x="0.1433" y="1" relative="1" as="geometry">
            <mxPoint x="40" as="offset" />
          </mxGeometry>
        </mxCell>
        <mxCell id="xaOBDBP3_dZCTzAAV_ms-21" value="1" style="edgeLabel;html=1;align=center;verticalAlign=middle;resizable=0;points=[];fontColor=#000000;" vertex="1" connectable="0" parent="xaOBDBP3_dZCTzAAV_ms-19">
          <mxGeometry x="-0.9605" relative="1" as="geometry">
            <mxPoint y="22" as="offset" />
          </mxGeometry>
        </mxCell>
        <mxCell id="xaOBDBP3_dZCTzAAV_ms-22" value="1" style="edgeLabel;html=1;align=center;verticalAlign=middle;resizable=0;points=[];fontColor=#000000;" vertex="1" connectable="0" parent="xaOBDBP3_dZCTzAAV_ms-19">
          <mxGeometry x="0.933" y="-1" relative="1" as="geometry">
            <mxPoint as="offset" />
          </mxGeometry>
        </mxCell>
        <mxCell id="xaOBDBP3_dZCTzAAV_ms-25" style="edgeStyle=orthogonalEdgeStyle;rounded=0;orthogonalLoop=1;jettySize=auto;html=1;exitX=0.25;exitY=1;exitDx=0;exitDy=0;entryX=1;entryY=0.75;entryDx=0;entryDy=0;endSize=15;endArrow=diamond;endFill=1;fontColor=#000000;" edge="1" parent="1" source="xaOBDBP3_dZCTzAAV_ms-27" target="xaOBDBP3_dZCTzAAV_ms-128">
          <mxGeometry relative="1" as="geometry">
            <mxPoint x="-230" y="1410" as="targetPoint" />
          </mxGeometry>
        </mxCell>
        <mxCell id="xaOBDBP3_dZCTzAAV_ms-26" style="edgeStyle=orthogonalEdgeStyle;rounded=0;orthogonalLoop=1;jettySize=auto;html=1;exitX=1;exitY=0.5;exitDx=0;exitDy=0;entryX=0;entryY=0.5;entryDx=0;entryDy=0;endArrow=diamond;endFill=1;endSize=15;fontColor=#000000;" edge="1" parent="1" source="xaOBDBP3_dZCTzAAV_ms-27" target="xaOBDBP3_dZCTzAAV_ms-126">
          <mxGeometry relative="1" as="geometry">
            <Array as="points">
              <mxPoint x="1550" y="522" />
            </Array>
          </mxGeometry>
        </mxCell>
        <mxCell id="xaOBDBP3_dZCTzAAV_ms-27" value="&lt;span style=&quot;font-size: 12pt; font-family: Calibri, sans-serif; background-color: transparent; font-weight: 700; font-style: normal; font-variant: normal; text-decoration: none; vertical-align: baseline; white-space: pre-wrap;&quot; id=&quot;docs-internal-guid-a88b9b18-7fff-cebd-dcaf-61405e9e3261&quot;&gt;Finder&lt;/span&gt;" style="swimlane;html=1;fontStyle=1;align=center;verticalAlign=top;childLayout=stackLayout;horizontal=1;startSize=50;horizontalStack=0;resizeParent=1;resizeLast=0;collapsible=1;marginBottom=0;swimlaneFillColor=#ffffff;rounded=1;shadow=0;comic=0;labelBackgroundColor=none;strokeWidth=1;fillColor=#e1d5e7;fontFamily=Verdana;fontSize=12;sketch=1;curveFitting=1;jiggle=2;strokeColor=#9673a6;fontColor=#000000;" vertex="1" parent="1">
          <mxGeometry x="1345" y="428" width="205" height="180" as="geometry" />
        </mxCell>
        <mxCell id="xaOBDBP3_dZCTzAAV_ms-28" value="&lt;div align=&quot;center&quot;&gt;&lt;span style=&quot;background-color: light-dark(#ffffff, var(--ge-dark-color, #121212));&quot;&gt;+&lt;/span&gt;&lt;span style=&quot;background-color: light-dark(#ffffff, var(--ge-dark-color, #121212));&quot;&gt;FillFoundItemForm():&lt;/span&gt;&lt;span style=&quot;background-color: light-dark(#ffffff, var(--ge-dark-color, #121212));&quot;&gt; Void&lt;/span&gt;&lt;/div&gt;&lt;div align=&quot;center&quot;&gt;&lt;span style=&quot;background-color: light-dark(#ffffff, var(--ge-dark-color, #121212));&quot;&gt;+FoundThisItem(): Void&lt;/span&gt;&lt;/div&gt;&lt;div align=&quot;center&quot;&gt;&lt;span style=&quot;background-color: light-dark(#ffffff, var(--ge-dark-color, #121212));&quot;&gt;+CheckNotifications(): Void&lt;/span&gt;&lt;/div&gt;&lt;div align=&quot;center&quot;&gt;&lt;span style=&quot;background-color: light-dark(#ffffff, var(--ge-dark-color, #121212));&quot;&gt;+AcceptForm(): Void&lt;/span&gt;&lt;/div&gt;&lt;div align=&quot;center&quot;&gt;&lt;span style=&quot;background-color: light-dark(#ffffff, var(--ge-dark-color, #121212));&quot;&gt;+ConfirmDropOff(): Boolean&lt;/span&gt;&lt;/div&gt;&lt;div align=&quot;center&quot;&gt;&lt;span style=&quot;background-color: light-dark(#ffffff, var(--ge-dark-color, #121212));&quot;&gt;+FillsCardData(): Void&lt;/span&gt;&lt;/div&gt;" style="text;html=1;align=center;verticalAlign=middle;resizable=0;points=[];autosize=1;strokeColor=none;fillColor=none;fontColor=#000000;" vertex="1" parent="xaOBDBP3_dZCTzAAV_ms-27">
          <mxGeometry y="50" width="205" height="100" as="geometry" />
        </mxCell>
        <mxCell id="xaOBDBP3_dZCTzAAV_ms-29" style="edgeStyle=orthogonalEdgeStyle;rounded=0;orthogonalLoop=1;jettySize=auto;html=1;exitX=-0.022;exitY=0.478;exitDx=0;exitDy=0;endArrow=diamond;endFill=1;endSize=15;exitPerimeter=0;fontColor=#000000;" edge="1" parent="1" source="xaOBDBP3_dZCTzAAV_ms-12" target="xaOBDBP3_dZCTzAAV_ms-42">
          <mxGeometry relative="1" as="geometry">
            <Array as="points">
              <mxPoint x="155" y="247" />
            </Array>
          </mxGeometry>
        </mxCell>
        <mxCell id="xaOBDBP3_dZCTzAAV_ms-30" value="1" style="edgeLabel;html=1;align=center;verticalAlign=middle;resizable=0;points=[];fontColor=#000000;" connectable="0" vertex="1" parent="xaOBDBP3_dZCTzAAV_ms-29">
          <mxGeometry x="0.8642" y="1" relative="1" as="geometry">
            <mxPoint as="offset" />
          </mxGeometry>
        </mxCell>
        <mxCell id="xaOBDBP3_dZCTzAAV_ms-31" value="1..*" style="edgeLabel;html=1;align=center;verticalAlign=middle;resizable=0;points=[];fontColor=#000000;" connectable="0" vertex="1" parent="xaOBDBP3_dZCTzAAV_ms-29">
          <mxGeometry x="-0.8434" y="2" relative="1" as="geometry">
            <mxPoint as="offset" />
          </mxGeometry>
        </mxCell>
        <mxCell id="xaOBDBP3_dZCTzAAV_ms-32" style="edgeStyle=orthogonalEdgeStyle;rounded=0;orthogonalLoop=1;jettySize=auto;html=1;entryX=0;entryY=0.25;entryDx=0;entryDy=0;exitX=1.015;exitY=0.196;exitDx=0;exitDy=0;exitPerimeter=0;fontColor=#000000;" edge="1" parent="1" source="xaOBDBP3_dZCTzAAV_ms-43" target="xaOBDBP3_dZCTzAAV_ms-55">
          <mxGeometry relative="1" as="geometry">
            <Array as="points">
              <mxPoint x="-130" y="125" />
              <mxPoint x="-130" y="440" />
              <mxPoint x="130" y="440" />
              <mxPoint x="130" y="489" />
            </Array>
          </mxGeometry>
        </mxCell>
        <mxCell id="xaOBDBP3_dZCTzAAV_ms-33" value="picks item up" style="edgeLabel;html=1;align=center;verticalAlign=middle;resizable=0;points=[];fontColor=#000000;" vertex="1" connectable="0" parent="xaOBDBP3_dZCTzAAV_ms-32">
          <mxGeometry x="-0.2516" relative="1" as="geometry">
            <mxPoint as="offset" />
          </mxGeometry>
        </mxCell>
        <mxCell id="xaOBDBP3_dZCTzAAV_ms-34" value="1" style="edgeLabel;html=1;align=center;verticalAlign=middle;resizable=0;points=[];fontColor=#000000;" vertex="1" connectable="0" parent="xaOBDBP3_dZCTzAAV_ms-32">
          <mxGeometry x="-0.9362" y="-2" relative="1" as="geometry">
            <mxPoint as="offset" />
          </mxGeometry>
        </mxCell>
        <mxCell id="xaOBDBP3_dZCTzAAV_ms-35" value="1" style="edgeLabel;html=1;align=center;verticalAlign=middle;resizable=0;points=[];fontColor=#000000;" vertex="1" connectable="0" parent="xaOBDBP3_dZCTzAAV_ms-32">
          <mxGeometry x="0.8674" y="-1" relative="1" as="geometry">
            <mxPoint x="1" y="1" as="offset" />
          </mxGeometry>
        </mxCell>
        <mxCell id="xaOBDBP3_dZCTzAAV_ms-39" style="edgeStyle=orthogonalEdgeStyle;rounded=0;orthogonalLoop=1;jettySize=auto;html=1;exitX=0;exitY=0.75;exitDx=0;exitDy=0;entryX=0;entryY=0.5;entryDx=0;entryDy=0;endArrow=diamond;endFill=1;endSize=15;fontColor=#000000;" edge="1" parent="1" source="xaOBDBP3_dZCTzAAV_ms-42" target="xaOBDBP3_dZCTzAAV_ms-128">
          <mxGeometry relative="1" as="geometry" />
        </mxCell>
        <mxCell id="xaOBDBP3_dZCTzAAV_ms-40" style="edgeStyle=orthogonalEdgeStyle;rounded=0;orthogonalLoop=1;jettySize=auto;html=1;exitX=0;exitY=0.25;exitDx=0;exitDy=0;entryX=0.5;entryY=0;entryDx=0;entryDy=0;fontColor=#000000;" edge="1" parent="1" source="xaOBDBP3_dZCTzAAV_ms-42" target="xaOBDBP3_dZCTzAAV_ms-130">
          <mxGeometry relative="1" as="geometry" />
        </mxCell>
        <mxCell id="xaOBDBP3_dZCTzAAV_ms-41" style="edgeStyle=orthogonalEdgeStyle;rounded=0;orthogonalLoop=1;jettySize=auto;html=1;exitX=0;exitY=0.5;exitDx=0;exitDy=0;entryX=1;entryY=0.25;entryDx=0;entryDy=0;endArrow=diamond;endFill=1;endSize=15;fontColor=#000000;" edge="1" parent="1" source="xaOBDBP3_dZCTzAAV_ms-42" target="xaOBDBP3_dZCTzAAV_ms-136">
          <mxGeometry relative="1" as="geometry" />
        </mxCell>
        <mxCell id="xaOBDBP3_dZCTzAAV_ms-42" value="&lt;div align=&quot;center&quot;&gt;&lt;font style=&quot;font-size: 16px;&quot;&gt;&lt;span style=&quot;font-family: Calibri, sans-serif; background-color: transparent; font-weight: 700; font-style: normal; font-variant: normal; text-decoration: none; vertical-align: baseline; white-space: pre-wrap;&quot; id=&quot;docs-internal-guid-7b11c67e-7fff-f666-aebd-7296b2d91ea7&quot;&gt;Lost Item Owner&lt;/span&gt;&lt;/font&gt;&lt;/div&gt;" style="swimlane;html=1;fontStyle=1;align=center;verticalAlign=top;childLayout=stackLayout;horizontal=1;startSize=66;horizontalStack=0;resizeParent=1;resizeLast=0;collapsible=1;marginBottom=0;swimlaneFillColor=#ffffff;rounded=1;shadow=0;comic=0;labelBackgroundColor=none;strokeWidth=1;fillColor=#e1d5e7;fontFamily=Verdana;fontSize=12;sketch=1;curveFitting=1;jiggle=2;strokeColor=#9673a6;fontColor=#000000;" vertex="1" parent="1">
          <mxGeometry x="-770" y="20" width="220" height="266" as="geometry" />
        </mxCell>
        <mxCell id="xaOBDBP3_dZCTzAAV_ms-43" value="&lt;div align=&quot;center&quot;&gt;&lt;span style=&quot;background-color: light-dark(#ffffff, var(--ge-dark-color, #121212));&quot;&gt;+&lt;/span&gt;&lt;span style=&quot;background-color: light-dark(#ffffff, var(--ge-dark-color, #121212));&quot;&gt;FillLostItemForm():&lt;/span&gt;&lt;span style=&quot;background-color: light-dark(#ffffff, var(--ge-dark-color, #121212));&quot;&gt; Void&lt;/span&gt;&lt;/div&gt;&lt;div align=&quot;center&quot;&gt;&lt;span style=&quot;background-color: light-dark(#ffffff, var(--ge-dark-color, #121212));&quot;&gt;+CheckNotifications(): Void&lt;/span&gt;&lt;/div&gt;&lt;div align=&quot;center&quot;&gt;&lt;span style=&quot;background-color: light-dark(#ffffff, var(--ge-dark-color, #121212));&quot;&gt;+ChooseDropOffPoint(): Void&lt;/span&gt;&lt;/div&gt;&lt;div align=&quot;center&quot;&gt;&lt;span style=&quot;background-color: light-dark(#ffffff, var(--ge-dark-color, #121212));&quot;&gt;+FillForm(): Void&lt;/span&gt;&lt;/div&gt;&lt;div align=&quot;center&quot;&gt;&lt;span style=&quot;background-color: light-dark(#ffffff, var(--ge-dark-color, #121212));&quot;&gt;+VerifyPickup(): Boolean&lt;/span&gt;&lt;/div&gt;&lt;div align=&quot;center&quot;&gt;&lt;span style=&quot;background-color: light-dark(#ffffff, var(--ge-dark-color, #121212));&quot;&gt;+LiveChat(): Void&lt;/span&gt;&lt;/div&gt;&lt;div align=&quot;center&quot;&gt;&lt;span style=&quot;background-color: light-dark(#ffffff, var(--ge-dark-color, #121212));&quot;&gt;+FillsCardData(): Void&lt;/span&gt;&lt;/div&gt;&lt;div align=&quot;center&quot;&gt;&lt;span style=&quot;background-color: light-dark(#ffffff, var(--ge-dark-color, #121212));&quot;&gt;+CreateReport(): Void&lt;/span&gt;&lt;/div&gt;&lt;div align=&quot;center&quot;&gt;&lt;span style=&quot;background-color: light-dark(#ffffff, var(--ge-dark-color, #121212));&quot;&gt;+TransferReward(): Void&lt;/span&gt;&lt;/div&gt;&lt;div align=&quot;center&quot;&gt;&lt;div align=&quot;center&quot;&gt;&lt;span style=&quot;background-color: light-dark(#ffffff, var(--ge-dark-color, #121212));&quot;&gt;+OwnThisItem(): Void&lt;/span&gt;&lt;/div&gt;&lt;div align=&quot;center&quot;&gt;&lt;span style=&quot;background-color: light-dark(#ffffff, var(--ge-dark-color, #121212));&quot;&gt;+MyPosts(): Void&lt;/span&gt;&lt;/div&gt;&lt;div align=&quot;center&quot;&gt;&lt;span style=&quot;background-color: light-dark(#ffffff, var(--ge-dark-color, #121212));&quot;&gt;+ChoosePost(): Void&lt;/span&gt;&lt;/div&gt;&lt;div align=&quot;center&quot;&gt;&lt;span style=&quot;background-color: light-dark(#ffffff, var(--ge-dark-color, #121212));&quot;&gt;+RateFinder(): Void&lt;/span&gt;&lt;/div&gt;&lt;/div&gt;" style="text;html=1;align=center;verticalAlign=middle;resizable=0;points=[];autosize=1;strokeColor=none;fillColor=none;fontColor=#000000;" vertex="1" parent="xaOBDBP3_dZCTzAAV_ms-42">
          <mxGeometry y="66" width="220" height="200" as="geometry" />
        </mxCell>
        <mxCell id="xaOBDBP3_dZCTzAAV_ms-44" style="edgeStyle=orthogonalEdgeStyle;rounded=0;orthogonalLoop=1;jettySize=auto;html=1;exitX=1.005;exitY=0.16;exitDx=0;exitDy=0;exitPerimeter=0;endArrow=diamond;endFill=1;endSize=15;entryX=0;entryY=0.25;entryDx=0;entryDy=0;fontColor=#000000;" edge="1" parent="1" source="xaOBDBP3_dZCTzAAV_ms-13" target="xaOBDBP3_dZCTzAAV_ms-27">
          <mxGeometry relative="1" as="geometry">
            <Array as="points">
              <mxPoint x="601" y="204" />
              <mxPoint x="680" y="204" />
              <mxPoint x="680" y="470" />
              <mxPoint x="1350" y="470" />
              <mxPoint x="1350" y="473" />
            </Array>
          </mxGeometry>
        </mxCell>
        <mxCell id="xaOBDBP3_dZCTzAAV_ms-45" value="1..*" style="edgeLabel;html=1;align=center;verticalAlign=middle;resizable=0;points=[];fontColor=#000000;" connectable="0" vertex="1" parent="xaOBDBP3_dZCTzAAV_ms-44">
          <mxGeometry x="-0.8736" y="-1" relative="1" as="geometry">
            <mxPoint as="offset" />
          </mxGeometry>
        </mxCell>
        <mxCell id="xaOBDBP3_dZCTzAAV_ms-46" value="1" style="edgeLabel;html=1;align=center;verticalAlign=middle;resizable=0;points=[];fontColor=#000000;" connectable="0" vertex="1" parent="xaOBDBP3_dZCTzAAV_ms-44">
          <mxGeometry x="0.9012" y="1" relative="1" as="geometry">
            <mxPoint as="offset" />
          </mxGeometry>
        </mxCell>
        <mxCell id="xaOBDBP3_dZCTzAAV_ms-47" value="User" style="swimlane;html=1;fontStyle=1;align=center;verticalAlign=top;childLayout=stackLayout;horizontal=1;startSize=26;horizontalStack=0;resizeParent=1;resizeLast=0;collapsible=1;marginBottom=0;swimlaneFillColor=#ffffff;rounded=1;shadow=0;comic=0;labelBackgroundColor=none;strokeWidth=1;fillColor=#e1d5e7;fontFamily=Verdana;fontSize=12;sketch=1;curveFitting=1;jiggle=2;strokeColor=#9673a6;fontColor=#000000;" vertex="1" parent="1">
          <mxGeometry x="237" y="-580" width="340" height="266" as="geometry" />
        </mxCell>
        <mxCell id="xaOBDBP3_dZCTzAAV_ms-48" value="&lt;div align=&quot;center&quot;&gt;-Username: String&lt;/div&gt;&lt;div align=&quot;center&quot;&gt;-Password: String&lt;/div&gt;&lt;div align=&quot;center&quot;&gt;&amp;nbsp; -UserType: Enum (Individual, Business Owner, Moderator)&lt;/div&gt;&lt;div align=&quot;center&quot;&gt;-First Name: String&lt;/div&gt;&lt;div align=&quot;center&quot;&gt;-Last Name: String&lt;/div&gt;&lt;div align=&quot;center&quot;&gt;-Email: String&lt;/div&gt;&lt;div align=&quot;center&quot;&gt;-ContactNumber:String&lt;/div&gt;&lt;div align=&quot;center&quot;&gt;-Verified: Boolean &lt;br&gt;&lt;/div&gt;&lt;div align=&quot;center&quot;&gt;+Ratings: Double&lt;/div&gt;&lt;div align=&quot;center&quot;&gt;&lt;br&gt;&lt;/div&gt;&lt;div align=&quot;center&quot;&gt;&lt;span style=&quot;background-color: light-dark(#ffffff, var(--ge-dark-color, #121212));&quot;&gt;+Login(): Void&lt;/span&gt;&lt;/div&gt;&lt;div align=&quot;center&quot;&gt;&lt;span style=&quot;background-color: light-dark(#ffffff, var(--ge-dark-color, #121212));&quot;&gt;+Logout(): Void&lt;/span&gt;&lt;/div&gt;&lt;div align=&quot;center&quot;&gt;&lt;span style=&quot;background-color: light-dark(#ffffff, var(--ge-dark-color, #121212));&quot;&gt;+AddPost(): Void&lt;/span&gt;&lt;/div&gt;&lt;div align=&quot;center&quot;&gt;&lt;br&gt;&lt;/div&gt;&lt;div&gt;&lt;div align=&quot;left&quot;&gt;&lt;br&gt;&lt;/div&gt;&lt;br&gt;&lt;/div&gt;" style="text;html=1;align=left;verticalAlign=middle;resizable=0;points=[];autosize=1;strokeColor=none;fillColor=none;fontColor=#000000;" vertex="1" parent="xaOBDBP3_dZCTzAAV_ms-47">
          <mxGeometry y="26" width="340" height="240" as="geometry" />
        </mxCell>
        <mxCell id="xaOBDBP3_dZCTzAAV_ms-49" style="edgeStyle=orthogonalEdgeStyle;rounded=0;orthogonalLoop=1;jettySize=auto;html=1;endArrow=block;endFill=0;exitX=0.5;exitY=0;exitDx=0;exitDy=0;entryX=0.086;entryY=1.013;entryDx=0;entryDy=0;entryPerimeter=0;endSize=15;fontColor=#000000;" edge="1" parent="1" source="xaOBDBP3_dZCTzAAV_ms-42" target="xaOBDBP3_dZCTzAAV_ms-48">
          <mxGeometry relative="1" as="geometry" />
        </mxCell>
        <mxCell id="xaOBDBP3_dZCTzAAV_ms-50" value="extends" style="edgeLabel;html=1;align=center;verticalAlign=middle;resizable=0;points=[];fontColor=#000000;" vertex="1" connectable="0" parent="xaOBDBP3_dZCTzAAV_ms-49">
          <mxGeometry x="0.065" y="-4" relative="1" as="geometry">
            <mxPoint as="offset" />
          </mxGeometry>
        </mxCell>
        <mxCell id="xaOBDBP3_dZCTzAAV_ms-51" style="edgeStyle=orthogonalEdgeStyle;rounded=0;orthogonalLoop=1;jettySize=auto;html=1;exitX=0.5;exitY=0;exitDx=0;exitDy=0;entryX=0.893;entryY=1.018;entryDx=0;entryDy=0;entryPerimeter=0;endArrow=block;endFill=0;endSize=15;fontColor=#000000;" edge="1" parent="1" source="xaOBDBP3_dZCTzAAV_ms-27" target="xaOBDBP3_dZCTzAAV_ms-48">
          <mxGeometry relative="1" as="geometry">
            <Array as="points">
              <mxPoint x="1447" y="90" />
              <mxPoint x="541" y="90" />
            </Array>
          </mxGeometry>
        </mxCell>
        <mxCell id="xaOBDBP3_dZCTzAAV_ms-52" value="extends" style="edgeLabel;html=1;align=center;verticalAlign=middle;resizable=0;points=[];fontColor=#000000;" vertex="1" connectable="0" parent="xaOBDBP3_dZCTzAAV_ms-51">
          <mxGeometry x="0.038" y="2" relative="1" as="geometry">
            <mxPoint x="1" as="offset" />
          </mxGeometry>
        </mxCell>
        <mxCell id="xaOBDBP3_dZCTzAAV_ms-53" style="rounded=0;orthogonalLoop=1;jettySize=auto;html=1;exitX=1;exitY=0.25;exitDx=0;exitDy=0;endArrow=block;endFill=0;entryX=-0.001;entryY=0.858;entryDx=0;entryDy=0;entryPerimeter=0;endSize=15;fontColor=#000000;" edge="1" parent="1" source="xaOBDBP3_dZCTzAAV_ms-185">
          <mxGeometry relative="1" as="geometry">
            <mxPoint x="-267.9669999999998" y="-339.97999999999956" as="sourcePoint" />
            <mxPoint x="237.0000000000003" y="-335.3499999999999" as="targetPoint" />
            <Array as="points" />
          </mxGeometry>
        </mxCell>
        <mxCell id="xaOBDBP3_dZCTzAAV_ms-54" value="extends" style="edgeLabel;html=1;align=center;verticalAlign=middle;resizable=0;points=[];fontColor=#000000;" vertex="1" connectable="0" parent="xaOBDBP3_dZCTzAAV_ms-53">
          <mxGeometry x="-0.5091" y="-3" relative="1" as="geometry">
            <mxPoint as="offset" />
          </mxGeometry>
        </mxCell>
        <mxCell id="xaOBDBP3_dZCTzAAV_ms-55" value="&lt;span style=&quot;font-size: 12pt; font-family: Calibri, sans-serif; background-color: transparent; font-weight: 700; font-style: normal; font-variant: normal; text-decoration: none; vertical-align: baseline; white-space: pre-wrap;&quot; id=&quot;docs-internal-guid-14b84c08-7fff-37eb-8898-61c19f886141&quot;&gt;Local Business&lt;/span&gt;" style="swimlane;html=1;fontStyle=1;align=center;verticalAlign=top;childLayout=stackLayout;horizontal=1;startSize=50;horizontalStack=0;resizeParent=1;resizeLast=0;collapsible=1;marginBottom=0;swimlaneFillColor=#ffffff;rounded=1;shadow=0;comic=0;labelBackgroundColor=none;strokeWidth=1;fillColor=#e1d5e7;fontFamily=Verdana;fontSize=12;sketch=1;curveFitting=1;jiggle=2;strokeColor=#9673a6;fontColor=#000000;" vertex="1" parent="1">
          <mxGeometry x="280.5" y="450" width="239" height="158" as="geometry" />
        </mxCell>
        <mxCell id="xaOBDBP3_dZCTzAAV_ms-56" value="&lt;div&gt;-Business ID: Integer&lt;/div&gt;&lt;div&gt;-Business Name: String&lt;/div&gt;&lt;div&gt;-Location: String&lt;/div&gt;&lt;div&gt;-Num of Successful Meetings: Integer&lt;/div&gt;" style="text;html=1;align=center;verticalAlign=middle;resizable=0;points=[];autosize=1;strokeColor=none;fillColor=none;fontColor=#000000;" vertex="1" parent="xaOBDBP3_dZCTzAAV_ms-55">
          <mxGeometry y="50" width="239" height="70" as="geometry" />
        </mxCell>
        <mxCell id="xaOBDBP3_dZCTzAAV_ms-57" style="edgeStyle=orthogonalEdgeStyle;rounded=0;orthogonalLoop=1;jettySize=auto;html=1;entryX=0.5;entryY=0;entryDx=0;entryDy=0;exitX=0.544;exitY=1.031;exitDx=0;exitDy=0;exitPerimeter=0;fontColor=#000000;" edge="1" parent="1" source="xaOBDBP3_dZCTzAAV_ms-186" target="xaOBDBP3_dZCTzAAV_ms-55">
          <mxGeometry relative="1" as="geometry">
            <Array as="points">
              <mxPoint x="-359" y="370" />
              <mxPoint x="400" y="370" />
            </Array>
            <mxPoint x="-450" y="-260" as="sourcePoint" />
          </mxGeometry>
        </mxCell>
        <mxCell id="xaOBDBP3_dZCTzAAV_ms-58" value="owns" style="edgeLabel;html=1;align=center;verticalAlign=middle;resizable=0;points=[];fontColor=#000000;" vertex="1" connectable="0" parent="xaOBDBP3_dZCTzAAV_ms-57">
          <mxGeometry x="-0.1094" y="3" relative="1" as="geometry">
            <mxPoint as="offset" />
          </mxGeometry>
        </mxCell>
        <mxCell id="xaOBDBP3_dZCTzAAV_ms-59" value="1" style="edgeLabel;html=1;align=center;verticalAlign=middle;resizable=0;points=[];fontColor=#000000;" vertex="1" connectable="0" parent="xaOBDBP3_dZCTzAAV_ms-57">
          <mxGeometry x="-0.9588" y="1" relative="1" as="geometry">
            <mxPoint as="offset" />
          </mxGeometry>
        </mxCell>
        <mxCell id="xaOBDBP3_dZCTzAAV_ms-60" value="0..*" style="edgeLabel;html=1;align=center;verticalAlign=middle;resizable=0;points=[];fontColor=#000000;" vertex="1" connectable="0" parent="xaOBDBP3_dZCTzAAV_ms-57">
          <mxGeometry x="0.9244" relative="1" as="geometry">
            <mxPoint as="offset" />
          </mxGeometry>
        </mxCell>
        <mxCell id="xaOBDBP3_dZCTzAAV_ms-61" style="edgeStyle=orthogonalEdgeStyle;rounded=0;orthogonalLoop=1;jettySize=auto;html=1;entryX=0.5;entryY=1;entryDx=0;entryDy=0;fontColor=#000000;" edge="1" parent="1" source="xaOBDBP3_dZCTzAAV_ms-65" target="xaOBDBP3_dZCTzAAV_ms-55">
          <mxGeometry relative="1" as="geometry" />
        </mxCell>
        <mxCell id="xaOBDBP3_dZCTzAAV_ms-62" value="happens at" style="edgeLabel;html=1;align=center;verticalAlign=middle;resizable=0;points=[];fontColor=#000000;" vertex="1" connectable="0" parent="xaOBDBP3_dZCTzAAV_ms-61">
          <mxGeometry x="-0.0328" y="4" relative="1" as="geometry">
            <mxPoint as="offset" />
          </mxGeometry>
        </mxCell>
        <mxCell id="xaOBDBP3_dZCTzAAV_ms-63" value="0..*" style="edgeLabel;html=1;align=center;verticalAlign=middle;resizable=0;points=[];fontColor=#000000;" vertex="1" connectable="0" parent="xaOBDBP3_dZCTzAAV_ms-61">
          <mxGeometry x="-0.679" y="1" relative="1" as="geometry">
            <mxPoint as="offset" />
          </mxGeometry>
        </mxCell>
        <mxCell id="xaOBDBP3_dZCTzAAV_ms-64" value="1" style="edgeLabel;html=1;align=center;verticalAlign=middle;resizable=0;points=[];fontColor=#000000;" vertex="1" connectable="0" parent="xaOBDBP3_dZCTzAAV_ms-61">
          <mxGeometry x="0.5506" relative="1" as="geometry">
            <mxPoint y="-1" as="offset" />
          </mxGeometry>
        </mxCell>
        <object label="Meeting" id="xaOBDBP3_dZCTzAAV_ms-65">
          <mxCell style="swimlane;html=1;fontStyle=1;align=center;verticalAlign=top;childLayout=stackLayout;horizontal=1;startSize=26;horizontalStack=0;resizeParent=1;resizeLast=0;collapsible=1;marginBottom=0;swimlaneFillColor=#ffffff;rounded=1;shadow=0;comic=0;labelBackgroundColor=none;strokeWidth=1;fillColor=#e1d5e7;fontFamily=Verdana;fontSize=12;sketch=1;curveFitting=1;jiggle=2;strokeColor=#9673a6;fontColor=#000000;" vertex="1" parent="1">
            <mxGeometry x="268.5" y="800" width="263" height="130" as="geometry" />
          </mxCell>
        </object>
        <mxCell id="xaOBDBP3_dZCTzAAV_ms-66" value="&lt;div&gt;-Location: String&lt;/div&gt;&lt;div&gt;-Time: String&lt;/div&gt;&lt;div&gt;-Date: String&lt;/div&gt;&lt;div&gt;-Status: Enum (Cancelled, Scheduled, Done)&lt;/div&gt;" style="text;html=1;align=center;verticalAlign=middle;resizable=0;points=[];autosize=1;strokeColor=none;fillColor=none;fontColor=#000000;" vertex="1" parent="xaOBDBP3_dZCTzAAV_ms-65">
          <mxGeometry y="26" width="263" height="70" as="geometry" />
        </mxCell>
        <mxCell id="xaOBDBP3_dZCTzAAV_ms-67" style="edgeStyle=orthogonalEdgeStyle;rounded=0;orthogonalLoop=1;jettySize=auto;html=1;entryX=0.005;entryY=0.049;entryDx=0;entryDy=0;entryPerimeter=0;exitX=0.25;exitY=1;exitDx=0;exitDy=0;fontColor=#000000;" edge="1" parent="1" source="xaOBDBP3_dZCTzAAV_ms-42" target="xaOBDBP3_dZCTzAAV_ms-66">
          <mxGeometry relative="1" as="geometry">
            <mxPoint x="-180" y="400" as="sourcePoint" />
            <mxPoint x="270" y="756" as="targetPoint" />
            <Array as="points">
              <mxPoint x="-715" y="829" />
              <mxPoint x="98" y="829" />
              <mxPoint x="270" y="830" />
            </Array>
          </mxGeometry>
        </mxCell>
        <mxCell id="xaOBDBP3_dZCTzAAV_ms-68" value="arranges" style="edgeLabel;html=1;align=center;verticalAlign=middle;resizable=0;points=[];fontColor=#000000;" vertex="1" connectable="0" parent="xaOBDBP3_dZCTzAAV_ms-67">
          <mxGeometry x="-0.078" y="-3" relative="1" as="geometry">
            <mxPoint as="offset" />
          </mxGeometry>
        </mxCell>
        <mxCell id="xaOBDBP3_dZCTzAAV_ms-69" value="1" style="edgeLabel;html=1;align=center;verticalAlign=middle;resizable=0;points=[];fontColor=#000000;" vertex="1" connectable="0" parent="xaOBDBP3_dZCTzAAV_ms-67">
          <mxGeometry x="0.9235" y="-1" relative="1" as="geometry">
            <mxPoint as="offset" />
          </mxGeometry>
        </mxCell>
        <mxCell id="xaOBDBP3_dZCTzAAV_ms-70" value="1" style="edgeLabel;html=1;align=center;verticalAlign=middle;resizable=0;points=[];fontColor=#000000;" vertex="1" connectable="0" parent="xaOBDBP3_dZCTzAAV_ms-67">
          <mxGeometry x="-0.8981" y="-1" relative="1" as="geometry">
            <mxPoint y="-1" as="offset" />
          </mxGeometry>
        </mxCell>
        <mxCell id="xaOBDBP3_dZCTzAAV_ms-71" style="edgeStyle=orthogonalEdgeStyle;rounded=0;orthogonalLoop=1;jettySize=auto;html=1;entryX=1.002;entryY=0.151;entryDx=0;entryDy=0;entryPerimeter=0;fontColor=#000000;" edge="1" parent="1" source="xaOBDBP3_dZCTzAAV_ms-84" target="xaOBDBP3_dZCTzAAV_ms-42">
          <mxGeometry relative="1" as="geometry">
            <Array as="points">
              <mxPoint x="290" y="-135" />
              <mxPoint x="290" y="70" />
              <mxPoint x="-550" y="70" />
            </Array>
          </mxGeometry>
        </mxCell>
        <mxCell id="xaOBDBP3_dZCTzAAV_ms-72" value="checks" style="edgeLabel;html=1;align=center;verticalAlign=middle;resizable=0;points=[];fontColor=#000000;" vertex="1" connectable="0" parent="xaOBDBP3_dZCTzAAV_ms-71">
          <mxGeometry x="-0.0498" y="-2" relative="1" as="geometry">
            <mxPoint x="1" as="offset" />
          </mxGeometry>
        </mxCell>
        <mxCell id="xaOBDBP3_dZCTzAAV_ms-73" value="1" style="edgeLabel;html=1;align=center;verticalAlign=middle;resizable=0;points=[];fontColor=#000000;" vertex="1" connectable="0" parent="xaOBDBP3_dZCTzAAV_ms-71">
          <mxGeometry x="-0.8667" relative="1" as="geometry">
            <mxPoint as="offset" />
          </mxGeometry>
        </mxCell>
        <mxCell id="xaOBDBP3_dZCTzAAV_ms-74" value="0..*" style="edgeLabel;html=1;align=center;verticalAlign=middle;resizable=0;points=[];fontColor=#000000;" vertex="1" connectable="0" parent="xaOBDBP3_dZCTzAAV_ms-71">
          <mxGeometry x="0.9056" relative="1" as="geometry">
            <mxPoint as="offset" />
          </mxGeometry>
        </mxCell>
        <mxCell id="xaOBDBP3_dZCTzAAV_ms-75" style="edgeStyle=orthogonalEdgeStyle;rounded=0;orthogonalLoop=1;jettySize=auto;html=1;entryX=0.25;entryY=0;entryDx=0;entryDy=0;fontColor=#000000;" edge="1" parent="1" source="xaOBDBP3_dZCTzAAV_ms-84" target="xaOBDBP3_dZCTzAAV_ms-27">
          <mxGeometry relative="1" as="geometry">
            <mxPoint x="860" y="190" as="targetPoint" />
            <Array as="points">
              <mxPoint x="500" y="-135" />
              <mxPoint x="500" y="20" />
              <mxPoint x="1396" y="20" />
            </Array>
          </mxGeometry>
        </mxCell>
        <mxCell id="xaOBDBP3_dZCTzAAV_ms-76" value="checks" style="edgeLabel;html=1;align=center;verticalAlign=middle;resizable=0;points=[];fontColor=#000000;" vertex="1" connectable="0" parent="xaOBDBP3_dZCTzAAV_ms-75">
          <mxGeometry x="-0.1802" y="-2" relative="1" as="geometry">
            <mxPoint as="offset" />
          </mxGeometry>
        </mxCell>
        <mxCell id="xaOBDBP3_dZCTzAAV_ms-77" value="0..*" style="edgeLabel;html=1;align=center;verticalAlign=middle;resizable=0;points=[];fontColor=#000000;" vertex="1" connectable="0" parent="xaOBDBP3_dZCTzAAV_ms-75">
          <mxGeometry x="0.9134" y="-2" relative="1" as="geometry">
            <mxPoint as="offset" />
          </mxGeometry>
        </mxCell>
        <mxCell id="xaOBDBP3_dZCTzAAV_ms-78" value="1" style="edgeLabel;html=1;align=center;verticalAlign=middle;resizable=0;points=[];fontColor=#000000;" connectable="0" vertex="1" parent="xaOBDBP3_dZCTzAAV_ms-75">
          <mxGeometry x="-0.9741" relative="1" as="geometry">
            <mxPoint as="offset" />
          </mxGeometry>
        </mxCell>
        <mxCell id="xaOBDBP3_dZCTzAAV_ms-79" style="edgeStyle=orthogonalEdgeStyle;rounded=0;orthogonalLoop=1;jettySize=auto;html=1;entryX=0.993;entryY=0.622;entryDx=0;entryDy=0;entryPerimeter=0;fontColor=#000000;" edge="1" parent="1" source="xaOBDBP3_dZCTzAAV_ms-84" target="xaOBDBP3_dZCTzAAV_ms-89">
          <mxGeometry relative="1" as="geometry">
            <mxPoint x="502" y="-580" as="targetPoint" />
            <Array as="points">
              <mxPoint x="690" y="-150" />
              <mxPoint x="690" y="-1070" />
              <mxPoint x="518" y="-1070" />
            </Array>
          </mxGeometry>
        </mxCell>
        <mxCell id="xaOBDBP3_dZCTzAAV_ms-80" value="checks" style="edgeLabel;html=1;align=center;verticalAlign=middle;resizable=0;points=[];fontColor=#000000;" vertex="1" connectable="0" parent="xaOBDBP3_dZCTzAAV_ms-79">
          <mxGeometry x="0.0378" y="-4" relative="1" as="geometry">
            <mxPoint y="1" as="offset" />
          </mxGeometry>
        </mxCell>
        <mxCell id="xaOBDBP3_dZCTzAAV_ms-81" value="1" style="edgeLabel;html=1;align=center;verticalAlign=middle;resizable=0;points=[];fontColor=#000000;" vertex="1" connectable="0" parent="xaOBDBP3_dZCTzAAV_ms-79">
          <mxGeometry x="-0.9549" y="2" relative="1" as="geometry">
            <mxPoint as="offset" />
          </mxGeometry>
        </mxCell>
        <mxCell id="xaOBDBP3_dZCTzAAV_ms-82" value="0..*" style="edgeLabel;html=1;align=center;verticalAlign=middle;resizable=0;points=[];fontColor=#000000;" vertex="1" connectable="0" parent="xaOBDBP3_dZCTzAAV_ms-79">
          <mxGeometry x="0.9169" y="2" relative="1" as="geometry">
            <mxPoint as="offset" />
          </mxGeometry>
        </mxCell>
        <mxCell id="xaOBDBP3_dZCTzAAV_ms-83" style="edgeStyle=orthogonalEdgeStyle;rounded=0;orthogonalLoop=1;jettySize=auto;html=1;exitX=1;exitY=1;exitDx=0;exitDy=0;entryX=1;entryY=1;entryDx=0;entryDy=0;endArrow=diamond;endFill=1;endSize=15;fontColor=#000000;" edge="1" parent="1" target="xaOBDBP3_dZCTzAAV_ms-84">
          <mxGeometry relative="1" as="geometry">
            <mxPoint x="1650" y="80" as="sourcePoint" />
            <Array as="points">
              <mxPoint x="1650" y="80" />
              <mxPoint x="1590" y="80" />
              <mxPoint x="1590" y="-10" />
              <mxPoint x="490" y="-10" />
            </Array>
          </mxGeometry>
        </mxCell>
        <mxCell id="xaOBDBP3_dZCTzAAV_ms-84" value="&lt;b&gt;&lt;span lang=&quot;EN-US&quot; style=&quot;font-size:12.0pt;line-height:115%;font-family:&amp;quot;Calibri&amp;quot;,&amp;quot;sans-serif&amp;quot;;&amp;lt;br/&amp;gt;mso-ascii-theme-font:minor-latin;mso-fareast-font-family:Calibri;mso-fareast-theme-font:&amp;lt;br/&amp;gt;minor-latin;mso-hansi-theme-font:minor-latin;mso-bidi-font-family:&amp;quot;Times New Roman&amp;quot;;&amp;lt;br/&amp;gt;mso-bidi-theme-font:minor-bidi;mso-font-kerning:1.0pt;mso-ansi-language:EN-US;&amp;lt;br/&amp;gt;mso-fareast-language:EN-US;mso-bidi-language:AR-SA&quot;&gt;Moderator&lt;/span&gt;&lt;span lang=&quot;EN-US&quot; style=&quot;font-size:12.0pt;line-height:115%;font-family:&amp;quot;Calibri&amp;quot;,&amp;quot;sans-serif&amp;quot;;&amp;lt;br/&amp;gt;mso-ascii-theme-font:minor-latin;mso-fareast-font-family:Calibri;mso-fareast-theme-font:&amp;lt;br/&amp;gt;minor-latin;mso-hansi-theme-font:minor-latin;mso-bidi-font-family:&amp;quot;Times New Roman&amp;quot;;&amp;lt;br/&amp;gt;mso-bidi-theme-font:minor-bidi;mso-font-kerning:1.0pt;mso-ansi-language:EL;&amp;lt;br/&amp;gt;mso-fareast-language:EN-US;mso-bidi-language:AR-SA&quot;&gt;&lt;/span&gt;&lt;/b&gt;" style="swimlane;html=1;fontStyle=1;align=center;verticalAlign=top;childLayout=stackLayout;horizontal=1;startSize=26;horizontalStack=0;resizeParent=1;resizeLast=0;collapsible=1;marginBottom=0;swimlaneFillColor=#ffffff;rounded=1;shadow=0;comic=0;labelBackgroundColor=none;strokeWidth=1;fillColor=#e1d5e7;fontFamily=Verdana;fontSize=12;sketch=1;curveFitting=1;jiggle=2;strokeColor=#9673a6;fontColor=#000000;" vertex="1" parent="1">
          <mxGeometry x="320" y="-180" width="170" height="136" as="geometry" />
        </mxCell>
        <mxCell id="xaOBDBP3_dZCTzAAV_ms-85" value="&lt;div&gt;&lt;span&gt;-Privileges: String&lt;/span&gt;&lt;/div&gt;&lt;div&gt;&lt;span style=&quot;&quot;&gt;&lt;br&gt;&lt;/span&gt;&lt;/div&gt;&lt;div&gt;&lt;span style=&quot;&quot;&gt;+ReportMenuClicked(): Void&lt;/span&gt;&lt;/div&gt;&lt;div&gt;&lt;span style=&quot;&quot;&gt;+&lt;span&gt;AcceptClicked()&lt;/span&gt;: Void&lt;/span&gt;&lt;/div&gt;&lt;div&gt;&lt;span style=&quot;&quot;&gt;+DeclineClicked(): Void&lt;/span&gt;&lt;/div&gt;&lt;div&gt;&lt;span style=&quot;&quot;&gt;+&lt;/span&gt;&lt;span style=&quot;&quot;&gt;UserListClicked(): Void&lt;/span&gt;&lt;/div&gt;&lt;div&gt;&lt;span style=&quot;&quot;&gt;+&lt;/span&gt;&lt;span&gt;&lt;span style=&quot;&quot;&gt;DeletesUser(): Boolean&lt;/span&gt;&lt;/span&gt;&lt;/div&gt;" style="text;html=1;align=center;verticalAlign=middle;resizable=0;points=[];autosize=1;strokeColor=none;fillColor=none;fontColor=#000000;" vertex="1" parent="xaOBDBP3_dZCTzAAV_ms-84">
          <mxGeometry y="26" width="170" height="110" as="geometry" />
        </mxCell>
        <mxCell id="xaOBDBP3_dZCTzAAV_ms-86" style="edgeStyle=orthogonalEdgeStyle;rounded=0;orthogonalLoop=1;jettySize=auto;html=1;entryX=0.377;entryY=1.003;entryDx=0;entryDy=0;entryPerimeter=0;endArrow=block;endFill=0;endSize=15;exitX=0.264;exitY=-0.013;exitDx=0;exitDy=0;exitPerimeter=0;fontColor=#000000;" edge="1" parent="1" source="xaOBDBP3_dZCTzAAV_ms-84" target="xaOBDBP3_dZCTzAAV_ms-48">
          <mxGeometry relative="1" as="geometry" />
        </mxCell>
        <mxCell id="xaOBDBP3_dZCTzAAV_ms-87" value="extends" style="edgeLabel;html=1;align=center;verticalAlign=middle;resizable=0;points=[];fontColor=#000000;" vertex="1" connectable="0" parent="xaOBDBP3_dZCTzAAV_ms-86">
          <mxGeometry x="-0.0557" y="-2" relative="1" as="geometry">
            <mxPoint y="1" as="offset" />
          </mxGeometry>
        </mxCell>
        <mxCell id="xaOBDBP3_dZCTzAAV_ms-88" value="&amp;nbsp;Item Post" style="swimlane;html=1;fontStyle=1;align=center;verticalAlign=top;childLayout=stackLayout;horizontal=1;startSize=50;horizontalStack=0;resizeParent=1;resizeLast=0;collapsible=1;marginBottom=0;swimlaneFillColor=#ffffff;rounded=1;shadow=0;comic=0;labelBackgroundColor=none;strokeWidth=1;fillColor=#e1d5e7;fontFamily=Verdana;fontSize=12;sketch=1;curveFitting=1;jiggle=2;strokeColor=#9673a6;fontColor=#000000;" vertex="1" parent="1">
          <mxGeometry x="315.5" y="-1220" width="204" height="220" as="geometry" />
        </mxCell>
        <mxCell id="xaOBDBP3_dZCTzAAV_ms-89" value="&lt;div&gt;-PostID: Integer&lt;/div&gt;&lt;div&gt;-Postedby (username): String&lt;/div&gt;&lt;div&gt;-PostAbout (ItemID): String&lt;/div&gt;&lt;div&gt;-Description: String&lt;/div&gt;&lt;div&gt;-Category: String&lt;/div&gt;&lt;div&gt;-PhotoURL: String&lt;/div&gt;&lt;div&gt;-Location: String&lt;/div&gt;&lt;div&gt;+show(): Void&lt;/div&gt;&lt;div&gt;&lt;span style=&quot;background-color: transparent;&quot;&gt;+&lt;/span&gt;IfoundthisItemClicked()&lt;/div&gt;&lt;div&gt;&lt;span style=&quot;background-color: transparent;&quot;&gt;+&lt;/span&gt;IownthisItemClicked()&lt;/div&gt;&lt;div&gt;&lt;span style=&quot;&quot;&gt;+&lt;/span&gt;&lt;/div&gt;" style="text;html=1;align=center;verticalAlign=middle;resizable=0;points=[];autosize=1;strokeColor=none;fillColor=none;fontColor=#000000;" vertex="1" parent="xaOBDBP3_dZCTzAAV_ms-88">
          <mxGeometry y="50" width="204" height="170" as="geometry" />
        </mxCell>
        <mxCell id="xaOBDBP3_dZCTzAAV_ms-90" value="Notification" style="swimlane;html=1;fontStyle=1;align=center;verticalAlign=top;childLayout=stackLayout;horizontal=1;startSize=26;horizontalStack=0;resizeParent=1;resizeLast=0;collapsible=1;marginBottom=0;swimlaneFillColor=#ffffff;rounded=1;shadow=0;comic=0;labelBackgroundColor=none;strokeWidth=1;fillColor=#e1d5e7;fontFamily=Verdana;fontSize=12;sketch=1;curveFitting=1;jiggle=2;strokeColor=#9673a6;fontColor=#000000;" vertex="1" parent="1">
          <mxGeometry x="1540" y="-610" width="299" height="138" as="geometry" />
        </mxCell>
        <mxCell id="xaOBDBP3_dZCTzAAV_ms-91" value="&lt;div align=&quot;center&quot;&gt;-NotificationID: Integer&lt;/div&gt;&lt;div align=&quot;center&quot;&gt;-Username: String&lt;/div&gt;&lt;div align=&quot;center&quot;&gt;-Type: Enum(Item Found, Status Update, Message)&lt;/div&gt;&lt;div align=&quot;center&quot;&gt;-Content: String&lt;/div&gt;&lt;div align=&quot;center&quot;&gt;-Seen: Boolean&lt;/div&gt;" style="text;html=1;align=center;verticalAlign=middle;resizable=0;points=[];autosize=1;strokeColor=none;fillColor=none;fontColor=#000000;" vertex="1" parent="xaOBDBP3_dZCTzAAV_ms-90">
          <mxGeometry y="26" width="299" height="90" as="geometry" />
        </mxCell>
        <mxCell id="xaOBDBP3_dZCTzAAV_ms-92" value="Message" style="swimlane;html=1;fontStyle=1;align=center;verticalAlign=top;childLayout=stackLayout;horizontal=1;startSize=26;horizontalStack=0;resizeParent=1;resizeLast=0;collapsible=1;marginBottom=0;swimlaneFillColor=#ffffff;rounded=1;shadow=0;comic=0;labelBackgroundColor=none;strokeWidth=1;fillColor=#e1d5e7;fontFamily=Verdana;fontSize=12;sketch=1;curveFitting=1;jiggle=2;strokeColor=#9673a6;fontColor=#000000;" vertex="1" parent="1">
          <mxGeometry x="1542" y="-440" width="295" height="138" as="geometry" />
        </mxCell>
        <mxCell id="xaOBDBP3_dZCTzAAV_ms-93" value="&lt;div&gt;-FromUsername: String&lt;/div&gt;&lt;div&gt;-ToUsername: String&lt;/div&gt;&lt;div&gt;-Text: String&lt;/div&gt;&lt;div&gt;-TimeStamp: String&lt;/div&gt;" style="text;html=1;align=center;verticalAlign=middle;resizable=0;points=[];autosize=1;strokeColor=none;fillColor=none;fontColor=#000000;" vertex="1" parent="xaOBDBP3_dZCTzAAV_ms-92">
          <mxGeometry y="26" width="295" height="70" as="geometry" />
        </mxCell>
        <mxCell id="xaOBDBP3_dZCTzAAV_ms-94" style="edgeStyle=orthogonalEdgeStyle;rounded=0;orthogonalLoop=1;jettySize=auto;html=1;exitX=0;exitY=0.75;exitDx=0;exitDy=0;endArrow=diamond;endFill=1;endSize=15;fontColor=#000000;" edge="1" parent="1" source="xaOBDBP3_dZCTzAAV_ms-92" target="xaOBDBP3_dZCTzAAV_ms-48">
          <mxGeometry relative="1" as="geometry">
            <Array as="points">
              <mxPoint x="1460" y="-337" />
              <mxPoint x="1460" y="-470" />
            </Array>
          </mxGeometry>
        </mxCell>
        <mxCell id="xaOBDBP3_dZCTzAAV_ms-95" value="sends" style="edgeLabel;html=1;align=center;verticalAlign=middle;resizable=0;points=[];fontColor=#000000;" vertex="1" connectable="0" parent="xaOBDBP3_dZCTzAAV_ms-94">
          <mxGeometry x="0.3298" y="-4" relative="1" as="geometry">
            <mxPoint x="-16" y="4" as="offset" />
          </mxGeometry>
        </mxCell>
        <mxCell id="xaOBDBP3_dZCTzAAV_ms-96" value="1" style="edgeLabel;html=1;align=center;verticalAlign=middle;resizable=0;points=[];fontColor=#000000;" vertex="1" connectable="0" parent="xaOBDBP3_dZCTzAAV_ms-94">
          <mxGeometry x="-0.9493" relative="1" as="geometry">
            <mxPoint x="-874" y="-133" as="offset" />
          </mxGeometry>
        </mxCell>
        <mxCell id="xaOBDBP3_dZCTzAAV_ms-97" value="0..*" style="edgeLabel;html=1;align=center;verticalAlign=middle;resizable=0;points=[];fontColor=#000000;" connectable="0" vertex="1" parent="xaOBDBP3_dZCTzAAV_ms-94">
          <mxGeometry x="-0.9172" relative="1" as="geometry">
            <mxPoint x="1" as="offset" />
          </mxGeometry>
        </mxCell>
        <mxCell id="xaOBDBP3_dZCTzAAV_ms-98" value="Rating" style="swimlane;html=1;fontStyle=1;align=center;verticalAlign=top;childLayout=stackLayout;horizontal=1;startSize=70;horizontalStack=0;resizeParent=1;resizeLast=0;collapsible=1;marginBottom=0;swimlaneFillColor=#ffffff;rounded=1;shadow=0;comic=0;labelBackgroundColor=none;strokeWidth=1;fillColor=#e1d5e7;fontFamily=Verdana;fontSize=12;sketch=1;curveFitting=1;jiggle=2;strokeColor=#9673a6;fontColor=#000000;" vertex="1" parent="1">
          <mxGeometry x="1597" y="699" width="277" height="226" as="geometry" />
        </mxCell>
        <mxCell id="xaOBDBP3_dZCTzAAV_ms-99" value="&lt;div&gt;-RatingId: Integer&lt;/div&gt;&lt;div&gt;-RaterUsername: String&lt;/div&gt;&lt;div&gt;-RateeUsername: String&lt;/div&gt;&lt;div&gt;-Score: Double&lt;/div&gt;&lt;div&gt;-Comment: String&lt;/div&gt;" style="text;html=1;align=center;verticalAlign=middle;resizable=0;points=[];autosize=1;strokeColor=none;fillColor=none;fontColor=#000000;" vertex="1" parent="xaOBDBP3_dZCTzAAV_ms-98">
          <mxGeometry y="70" width="277" height="90" as="geometry" />
        </mxCell>
        <mxCell id="xaOBDBP3_dZCTzAAV_ms-100" style="edgeStyle=orthogonalEdgeStyle;rounded=0;orthogonalLoop=1;jettySize=auto;html=1;exitX=0;exitY=0.25;exitDx=0;exitDy=0;endArrow=diamond;endFill=1;endSize=15;fontColor=#000000;" edge="1" parent="1" source="xaOBDBP3_dZCTzAAV_ms-195" target="xaOBDBP3_dZCTzAAV_ms-48">
          <mxGeometry relative="1" as="geometry">
            <Array as="points">
              <mxPoint x="1630" y="-210" />
              <mxPoint x="407" y="-210" />
            </Array>
          </mxGeometry>
        </mxCell>
        <mxCell id="xaOBDBP3_dZCTzAAV_ms-101" value="&lt;span style=&quot;font-size: 12pt; font-family: Calibri, sans-serif; background-color: transparent; font-weight: 700; font-style: normal; font-variant: normal; text-decoration: none; vertical-align: baseline; white-space: pre-wrap;&quot; id=&quot;docs-internal-guid-1561e7d6-7fff-89ee-e552-ebd9630c0ea6&quot;&gt;Transaction&lt;/span&gt;" style="swimlane;html=1;fontStyle=1;align=center;verticalAlign=top;childLayout=stackLayout;horizontal=1;startSize=70;horizontalStack=0;resizeParent=1;resizeLast=0;collapsible=1;marginBottom=0;swimlaneFillColor=#ffffff;rounded=1;shadow=0;comic=0;labelBackgroundColor=none;strokeWidth=1;fillColor=#e1d5e7;fontFamily=Verdana;fontSize=12;sketch=1;curveFitting=1;jiggle=2;strokeColor=#9673a6;fontColor=#000000;" vertex="1" parent="1">
          <mxGeometry x="264" y="970" width="277" height="226" as="geometry" />
        </mxCell>
        <mxCell id="xaOBDBP3_dZCTzAAV_ms-102" value="&lt;div&gt;-TransactionId: Integer&lt;/div&gt;&lt;div&gt;-FromUsername: String&lt;/div&gt;&lt;div&gt;-ToUsername: String&lt;/div&gt;&lt;div&gt;-Amount: Double&lt;/div&gt;&lt;div&gt;-Currency: String&lt;/div&gt;&lt;div&gt;-When: DateTime&lt;/div&gt;&lt;div&gt;-Status: Enum (Pending, Successful, Failed)&lt;/div&gt;&lt;div&gt;&lt;br&gt;&lt;/div&gt;" style="text;html=1;align=center;verticalAlign=middle;resizable=0;points=[];autosize=1;strokeColor=none;fillColor=none;fontColor=#000000;" vertex="1" parent="xaOBDBP3_dZCTzAAV_ms-101">
          <mxGeometry y="70" width="277" height="130" as="geometry" />
        </mxCell>
        <mxCell id="xaOBDBP3_dZCTzAAV_ms-103" style="edgeStyle=orthogonalEdgeStyle;rounded=0;orthogonalLoop=1;jettySize=auto;html=1;exitX=-0.005;exitY=0.407;exitDx=0;exitDy=0;exitPerimeter=0;endArrow=diamond;endFill=1;endSize=15;fontColor=#000000;" edge="1" parent="1" source="xaOBDBP3_dZCTzAAV_ms-91" target="xaOBDBP3_dZCTzAAV_ms-47">
          <mxGeometry relative="1" as="geometry">
            <Array as="points">
              <mxPoint x="1288" y="-550" />
            </Array>
          </mxGeometry>
        </mxCell>
        <mxCell id="xaOBDBP3_dZCTzAAV_ms-104" value="gets" style="edgeLabel;html=1;align=center;verticalAlign=middle;resizable=0;points=[];fontColor=#000000;" vertex="1" connectable="0" parent="xaOBDBP3_dZCTzAAV_ms-103">
          <mxGeometry x="0.2836" y="4" relative="1" as="geometry">
            <mxPoint x="1" y="-4" as="offset" />
          </mxGeometry>
        </mxCell>
        <mxCell id="xaOBDBP3_dZCTzAAV_ms-105" value="1" style="edgeLabel;html=1;align=center;verticalAlign=middle;resizable=0;points=[];fontColor=#000000;" vertex="1" connectable="0" parent="xaOBDBP3_dZCTzAAV_ms-103">
          <mxGeometry x="-0.9386" relative="1" as="geometry">
            <mxPoint x="-869" y="-3" as="offset" />
          </mxGeometry>
        </mxCell>
        <mxCell id="xaOBDBP3_dZCTzAAV_ms-106" value="0..*" style="edgeLabel;html=1;align=center;verticalAlign=middle;resizable=0;points=[];fontColor=#000000;" connectable="0" vertex="1" parent="xaOBDBP3_dZCTzAAV_ms-103">
          <mxGeometry x="-0.9129" y="-3" relative="1" as="geometry">
            <mxPoint as="offset" />
          </mxGeometry>
        </mxCell>
        <mxCell id="xaOBDBP3_dZCTzAAV_ms-107" style="edgeStyle=orthogonalEdgeStyle;rounded=0;orthogonalLoop=1;jettySize=auto;html=1;entryX=0.244;entryY=0;entryDx=0;entryDy=0;entryPerimeter=0;endArrow=diamond;endFill=1;endSize=15;fontColor=#000000;" edge="1" parent="1" source="xaOBDBP3_dZCTzAAV_ms-108" target="xaOBDBP3_dZCTzAAV_ms-47">
          <mxGeometry relative="1" as="geometry">
            <Array as="points">
              <mxPoint x="-240" y="-720" />
              <mxPoint x="320" y="-720" />
            </Array>
          </mxGeometry>
        </mxCell>
        <mxCell id="xaOBDBP3_dZCTzAAV_ms-108" value="&lt;font style=&quot;color: rgb(255, 0, 0);&quot;&gt;Login Screen&lt;/font&gt;" style="swimlane;html=1;fontStyle=1;align=center;verticalAlign=top;childLayout=stackLayout;horizontal=1;startSize=66;horizontalStack=0;resizeParent=1;resizeLast=0;collapsible=1;marginBottom=0;swimlaneFillColor=#ffffff;rounded=1;shadow=0;comic=0;labelBackgroundColor=none;strokeWidth=1;fillColor=#e1d5e7;fontFamily=Verdana;fontSize=12;sketch=1;curveFitting=1;jiggle=2;strokeColor=#9673a6;fontColor=#000000;" vertex="1" parent="1">
          <mxGeometry x="-460" y="-1060" width="231" height="144" as="geometry" />
        </mxCell>
        <mxCell id="xaOBDBP3_dZCTzAAV_ms-109" value="&lt;div&gt;+&lt;span style=&quot;background-color: transparent;&quot;&gt;Login&lt;/span&gt;&lt;span style=&quot;background-color: transparent;&quot;&gt;(): Void&lt;/span&gt;&lt;/div&gt;&lt;div&gt;&lt;div&gt;&lt;div&gt;+DisplayLogscr&lt;span style=&quot;background-color: transparent;&quot;&gt;(): Void&lt;/span&gt;&lt;/div&gt;&lt;div&gt;&lt;br&gt;&lt;/div&gt;&lt;/div&gt;&lt;/div&gt;" style="text;html=1;align=center;verticalAlign=middle;resizable=0;points=[];autosize=1;strokeColor=none;fillColor=none;fontColor=#000000;" vertex="1" parent="xaOBDBP3_dZCTzAAV_ms-108">
          <mxGeometry y="66" width="231" height="60" as="geometry" />
        </mxCell>
        <mxCell id="xaOBDBP3_dZCTzAAV_ms-110" value="&lt;font style=&quot;&quot;&gt;System&lt;/font&gt;" style="swimlane;html=1;fontStyle=1;align=center;verticalAlign=top;childLayout=stackLayout;horizontal=1;startSize=70;horizontalStack=0;resizeParent=1;resizeLast=0;collapsible=1;marginBottom=0;swimlaneFillColor=#ffffff;rounded=1;shadow=0;comic=0;labelBackgroundColor=none;strokeWidth=1;fillColor=#e1d5e7;fontFamily=Verdana;fontSize=12;sketch=1;curveFitting=1;jiggle=2;strokeColor=#9673a6;fontColor=#000000;" vertex="1" parent="1">
          <mxGeometry x="920" y="-1020" width="277" height="220" as="geometry" />
        </mxCell>
        <mxCell id="xaOBDBP3_dZCTzAAV_ms-111" value="&lt;div&gt;&lt;div&gt;+Logindetails(): Void&lt;/div&gt;&lt;/div&gt;&lt;div&gt;+NotValidPass(): Void&lt;/div&gt;&lt;div&gt;+&lt;span style=&quot;font-size: 11px; text-align: left; background-color: rgb(255, 255, 255);&quot;&gt;TransferRew&lt;/span&gt;(): Void&lt;/div&gt;&lt;div&gt;+&lt;span style=&quot;font-size: 11px; text-align: left; background-color: rgb(255, 255, 255);&quot;&gt;UltimatumSet&lt;/span&gt;(): Void&lt;/div&gt;&lt;div&gt;+&lt;span style=&quot;font-size: 11px; text-align: left; background-color: rgb(255, 255, 255);&quot;&gt;TransferRew&lt;/span&gt;(): Void&lt;/div&gt;&lt;div&gt;&lt;font style=&quot;&quot;&gt;+&lt;span style=&quot;font-size: 11px; text-align: left; background-color: rgb(255, 255, 255);&quot;&gt;CheckLostItemForm&lt;/span&gt;(): Void&lt;/font&gt;&lt;/div&gt;&lt;div&gt;&lt;font style=&quot;&quot;&gt;+&lt;span style=&quot;font-size: 11px; text-align: left; background-color: rgb(255, 255, 255);&quot;&gt;CheckFoundItemForm&lt;/span&gt;(): Void&lt;/font&gt;&lt;font style=&quot;&quot;&gt;&lt;br&gt;&lt;/font&gt;&lt;/div&gt;&lt;div&gt;&lt;font style=&quot;&quot;&gt;+&lt;span style=&quot;font-size: 11px; text-align: left; background-color: rgb(255, 255, 255);&quot;&gt;CheckRatingForm&lt;/span&gt;(): Void&lt;/font&gt;&lt;/div&gt;&lt;div&gt;+&lt;span style=&quot;font-size: 11px; text-align: left; background-color: rgb(255, 255, 255);&quot;&gt;BadLanguageDetected&lt;/span&gt;(): Void&lt;/div&gt;" style="text;html=1;align=center;verticalAlign=middle;resizable=0;points=[];autosize=1;strokeColor=none;fillColor=none;fontColor=#000000;" vertex="1" parent="xaOBDBP3_dZCTzAAV_ms-110">
          <mxGeometry y="70" width="277" height="140" as="geometry" />
        </mxCell>
        <mxCell id="xaOBDBP3_dZCTzAAV_ms-112" value="&lt;font style=&quot;&quot;&gt;MainMenu&lt;/font&gt;" style="swimlane;html=1;fontStyle=1;align=center;verticalAlign=top;childLayout=stackLayout;horizontal=1;startSize=70;horizontalStack=0;resizeParent=1;resizeLast=0;collapsible=1;marginBottom=0;swimlaneFillColor=#ffffff;rounded=1;shadow=0;comic=0;labelBackgroundColor=none;strokeWidth=1;fillColor=#e1d5e7;fontFamily=Verdana;fontSize=12;sketch=1;curveFitting=1;jiggle=2;strokeColor=#9673a6;fontColor=#000000;" vertex="1" parent="1">
          <mxGeometry x="-307" y="-670" width="277" height="160" as="geometry" />
        </mxCell>
        <mxCell id="xaOBDBP3_dZCTzAAV_ms-113" value="&lt;div&gt;+Addpostclicicked(): Void&lt;/div&gt;&lt;div&gt;+Show(): Void&lt;/div&gt;&lt;div&gt;+AddNotification(): Void&lt;/div&gt;&lt;div&gt;+Notificationsclicked(): Void&lt;/div&gt;&lt;div&gt;+MyPostsClicked(): Void&lt;/div&gt;" style="text;html=1;align=center;verticalAlign=middle;resizable=0;points=[];autosize=1;strokeColor=none;fillColor=none;fontColor=#000000;" vertex="1" parent="xaOBDBP3_dZCTzAAV_ms-112">
          <mxGeometry y="70" width="277" height="90" as="geometry" />
        </mxCell>
        <mxCell id="xaOBDBP3_dZCTzAAV_ms-114" value="&lt;font style=&quot;color: rgb(255, 0, 0);&quot;&gt;CreatePostScreen&lt;/font&gt;" style="swimlane;html=1;fontStyle=1;align=center;verticalAlign=top;childLayout=stackLayout;horizontal=1;startSize=70;horizontalStack=0;resizeParent=1;resizeLast=0;collapsible=1;marginBottom=0;swimlaneFillColor=#ffffff;rounded=1;shadow=0;comic=0;labelBackgroundColor=none;strokeWidth=1;fillColor=#e1d5e7;fontFamily=Verdana;fontSize=12;sketch=1;curveFitting=1;jiggle=2;strokeColor=#9673a6;fontColor=#000000;" vertex="1" parent="1">
          <mxGeometry x="-130" y="-980" width="277" height="130" as="geometry" />
        </mxCell>
        <mxCell id="xaOBDBP3_dZCTzAAV_ms-115" value="+show(): Void" style="text;html=1;align=center;verticalAlign=middle;resizable=0;points=[];autosize=1;strokeColor=none;fillColor=none;fontColor=#000000;" vertex="1" parent="xaOBDBP3_dZCTzAAV_ms-114">
          <mxGeometry y="70" width="277" height="30" as="geometry" />
        </mxCell>
        <mxCell id="xaOBDBP3_dZCTzAAV_ms-116" value="&lt;font style=&quot;&quot;&gt;DataBase&lt;/font&gt;" style="swimlane;html=1;fontStyle=1;align=center;verticalAlign=top;childLayout=stackLayout;horizontal=1;startSize=70;horizontalStack=0;resizeParent=1;resizeLast=0;collapsible=1;marginBottom=0;swimlaneFillColor=#ffffff;rounded=1;shadow=0;comic=0;labelBackgroundColor=none;strokeWidth=1;fillColor=#e1d5e7;fontFamily=Verdana;fontSize=12;sketch=1;curveFitting=1;jiggle=2;strokeColor=#9673a6;fontColor=#000000;" vertex="1" parent="1">
          <mxGeometry x="1250" y="-1020" width="277" height="240" as="geometry" />
        </mxCell>
        <mxCell id="xaOBDBP3_dZCTzAAV_ms-117" value="&lt;div&gt;+CheckCredentials(): Boolean&lt;/div&gt;&lt;div&gt;+SubmitPost(): Void&lt;/div&gt;&lt;div&gt;+NotifiesItemowner(): Void&lt;/div&gt;&lt;div&gt;+Update(): Void&lt;/div&gt;&lt;div&gt;+Notify(): Void&lt;/div&gt;&lt;div&gt;+CreatesReport(): Void&lt;/div&gt;&lt;div&gt;+NotifiesFinder(): Void&lt;/div&gt;&lt;div&gt;+UpdatesFinderProfile(): Void&lt;/div&gt;&lt;div&gt;+SaveBusasDropoff(): Void&lt;/div&gt;&lt;div&gt;+NotifiesOwner(): Void&lt;/div&gt;&lt;div&gt;+SendToBottom(): Void&lt;/div&gt;" style="text;html=1;align=center;verticalAlign=middle;resizable=0;points=[];autosize=1;strokeColor=none;fillColor=none;fontColor=#000000;" vertex="1" parent="xaOBDBP3_dZCTzAAV_ms-116">
          <mxGeometry y="70" width="277" height="170" as="geometry" />
        </mxCell>
        <mxCell id="xaOBDBP3_dZCTzAAV_ms-118" value="&lt;font style=&quot;color: rgb(255, 0, 0);&quot;&gt;LostItemsPostScreen&lt;/font&gt;" style="swimlane;html=1;fontStyle=1;align=center;verticalAlign=top;childLayout=stackLayout;horizontal=1;startSize=66;horizontalStack=0;resizeParent=1;resizeLast=0;collapsible=1;marginBottom=0;swimlaneFillColor=#ffffff;rounded=1;shadow=0;comic=0;labelBackgroundColor=none;strokeWidth=1;fillColor=#e1d5e7;fontFamily=Verdana;fontSize=12;sketch=1;curveFitting=1;jiggle=2;strokeColor=#9673a6;fontColor=#000000;" vertex="1" parent="1">
          <mxGeometry x="425" y="-870" width="231" height="144" as="geometry" />
        </mxCell>
        <mxCell id="xaOBDBP3_dZCTzAAV_ms-119" value="&lt;div&gt;+show(): Void&lt;/div&gt;&lt;div&gt;+LogoutClicked(): Void&lt;/div&gt;" style="text;html=1;align=center;verticalAlign=middle;resizable=0;points=[];autosize=1;strokeColor=none;fillColor=none;fontColor=#000000;" vertex="1" parent="xaOBDBP3_dZCTzAAV_ms-118">
          <mxGeometry y="66" width="231" height="40" as="geometry" />
        </mxCell>
        <mxCell id="xaOBDBP3_dZCTzAAV_ms-120" value="&lt;font style=&quot;&quot;&gt;ActiveChatMenu&lt;/font&gt;" style="swimlane;html=1;fontStyle=1;align=center;verticalAlign=top;childLayout=stackLayout;horizontal=1;startSize=66;horizontalStack=0;resizeParent=1;resizeLast=0;collapsible=1;marginBottom=0;swimlaneFillColor=#ffffff;rounded=1;shadow=0;comic=0;labelBackgroundColor=none;strokeWidth=1;fillColor=#e1d5e7;fontFamily=Verdana;fontSize=12;sketch=1;curveFitting=1;jiggle=2;strokeColor=#9673a6;fontColor=#000000;" vertex="1" parent="1">
          <mxGeometry x="-630" y="608" width="231" height="144" as="geometry" />
        </mxCell>
        <mxCell id="xaOBDBP3_dZCTzAAV_ms-121" value="+LiveChatclicked(): Void" style="text;html=1;align=center;verticalAlign=middle;resizable=0;points=[];autosize=1;strokeColor=none;fillColor=none;fontColor=#000000;" vertex="1" parent="xaOBDBP3_dZCTzAAV_ms-120">
          <mxGeometry y="66" width="231" height="30" as="geometry" />
        </mxCell>
        <mxCell id="xaOBDBP3_dZCTzAAV_ms-122" value="&lt;font style=&quot;&quot;&gt;DropOffPointList&lt;/font&gt;" style="swimlane;html=1;fontStyle=1;align=center;verticalAlign=top;childLayout=stackLayout;horizontal=1;startSize=66;horizontalStack=0;resizeParent=1;resizeLast=0;collapsible=1;marginBottom=0;swimlaneFillColor=#ffffff;rounded=1;shadow=0;comic=0;labelBackgroundColor=none;strokeWidth=1;fillColor=#e1d5e7;fontFamily=Verdana;fontSize=12;sketch=1;curveFitting=1;jiggle=2;strokeColor=#9673a6;fontColor=#000000;" vertex="1" parent="1">
          <mxGeometry x="-720" y="960" width="231" height="144" as="geometry" />
        </mxCell>
        <mxCell id="xaOBDBP3_dZCTzAAV_ms-123" value="&lt;div&gt;+DropoffPointsChoose():Void&lt;/div&gt;&lt;div&gt;+Show(): Void&lt;/div&gt;" style="text;html=1;align=center;verticalAlign=middle;resizable=0;points=[];autosize=1;strokeColor=none;fillColor=none;fontColor=#000000;" vertex="1" parent="xaOBDBP3_dZCTzAAV_ms-122">
          <mxGeometry y="66" width="231" height="40" as="geometry" />
        </mxCell>
        <mxCell id="xaOBDBP3_dZCTzAAV_ms-124" value="&lt;font style=&quot;color: rgb(255, 0, 0);&quot;&gt;MeetingFormScreen&lt;/font&gt;" style="swimlane;html=1;fontStyle=1;align=center;verticalAlign=top;childLayout=stackLayout;horizontal=1;startSize=66;horizontalStack=0;resizeParent=1;resizeLast=0;collapsible=1;marginBottom=0;swimlaneFillColor=#ffffff;rounded=1;shadow=0;comic=0;labelBackgroundColor=none;strokeWidth=1;fillColor=#e1d5e7;fontFamily=Verdana;fontSize=12;sketch=1;curveFitting=1;jiggle=2;strokeColor=#9673a6;fontColor=#000000;" vertex="1" parent="1">
          <mxGeometry x="577" y="690" width="231" height="144" as="geometry" />
        </mxCell>
        <mxCell id="xaOBDBP3_dZCTzAAV_ms-125" value="+Show(): Void&lt;div&gt;&lt;br&gt;&lt;/div&gt;" style="text;html=1;align=center;verticalAlign=middle;resizable=0;points=[];autosize=1;strokeColor=none;fillColor=none;fontColor=#000000;" vertex="1" parent="xaOBDBP3_dZCTzAAV_ms-124">
          <mxGeometry y="66" width="231" height="40" as="geometry" />
        </mxCell>
        <mxCell id="xaOBDBP3_dZCTzAAV_ms-126" value="&lt;font style=&quot;color: rgb(255, 0, 0);&quot;&gt;FormScreen&lt;/font&gt;" style="swimlane;html=1;fontStyle=1;align=center;verticalAlign=top;childLayout=stackLayout;horizontal=1;startSize=66;horizontalStack=0;resizeParent=1;resizeLast=0;collapsible=1;marginBottom=0;swimlaneFillColor=#ffffff;rounded=1;shadow=0;comic=0;labelBackgroundColor=none;strokeWidth=1;fillColor=#e1d5e7;fontFamily=Verdana;fontSize=12;sketch=1;curveFitting=1;jiggle=2;strokeColor=#9673a6;fontColor=#000000;" vertex="1" parent="1">
          <mxGeometry x="1840" y="450" width="231" height="144" as="geometry" />
        </mxCell>
        <mxCell id="xaOBDBP3_dZCTzAAV_ms-127" value="&lt;div&gt;+AcceptFormclicked(): Void&lt;/div&gt;&lt;div&gt;+Show(): Void&lt;/div&gt;" style="text;html=1;align=center;verticalAlign=middle;resizable=0;points=[];autosize=1;strokeColor=none;fillColor=none;fontColor=#000000;" vertex="1" parent="xaOBDBP3_dZCTzAAV_ms-126">
          <mxGeometry y="66" width="231" height="40" as="geometry" />
        </mxCell>
        <mxCell id="xaOBDBP3_dZCTzAAV_ms-128" value="&lt;font style=&quot;color: rgb(255, 0, 0);&quot;&gt;VerifyPickupScreen&lt;/font&gt;" style="swimlane;html=1;fontStyle=1;align=center;verticalAlign=top;childLayout=stackLayout;horizontal=1;startSize=66;horizontalStack=0;resizeParent=1;resizeLast=0;collapsible=1;marginBottom=0;swimlaneFillColor=#ffffff;rounded=1;shadow=0;comic=0;labelBackgroundColor=none;strokeWidth=1;fillColor=#e1d5e7;fontFamily=Verdana;fontSize=12;sketch=1;curveFitting=1;jiggle=2;strokeColor=#9673a6;fontColor=#000000;" vertex="1" parent="1">
          <mxGeometry x="-656" y="1196" width="231" height="166" as="geometry" />
        </mxCell>
        <mxCell id="xaOBDBP3_dZCTzAAV_ms-129" value="&lt;div&gt;+ConfirmDropoffclicked(): Void&lt;/div&gt;&lt;div&gt;+Show(): Void&lt;/div&gt;&lt;div&gt;+VerifyPickupclicked(): Void&lt;/div&gt;&lt;div&gt;&lt;div&gt;+ NoVerifyPickup(): Void&lt;/div&gt;&lt;div&gt;+ NoVerifyDropOff(): Void&lt;/div&gt;&lt;div&gt;+ NoVerifyTimeLimit(): Void&lt;/div&gt;&lt;/div&gt;" style="text;html=1;align=center;verticalAlign=middle;resizable=0;points=[];autosize=1;strokeColor=none;fillColor=none;fontColor=#000000;" vertex="1" parent="xaOBDBP3_dZCTzAAV_ms-128">
          <mxGeometry y="66" width="231" height="100" as="geometry" />
        </mxCell>
        <mxCell id="xaOBDBP3_dZCTzAAV_ms-130" value="&lt;font style=&quot;color: rgb(255, 0, 0);&quot;&gt;FoundItemsPostScreen&lt;/font&gt;" style="swimlane;html=1;fontStyle=1;align=center;verticalAlign=top;childLayout=stackLayout;horizontal=1;startSize=66;horizontalStack=0;resizeParent=1;resizeLast=0;collapsible=1;marginBottom=0;swimlaneFillColor=#ffffff;rounded=1;shadow=0;comic=0;labelBackgroundColor=none;strokeWidth=1;fillColor=#e1d5e7;fontFamily=Verdana;fontSize=12;sketch=1;curveFitting=1;jiggle=2;strokeColor=#9673a6;fontColor=#000000;" vertex="1" parent="1">
          <mxGeometry x="-1040" y="500" width="231" height="144" as="geometry" />
        </mxCell>
        <mxCell id="xaOBDBP3_dZCTzAAV_ms-131" value="&lt;div&gt;+Show(): Void&lt;/div&gt;&lt;div&gt;&lt;div&gt;+&lt;span style=&quot;background-color: transparent;&quot;&gt;LogoutClicked&lt;/span&gt;&lt;span style=&quot;background-color: transparent;&quot;&gt;(): Void&lt;/span&gt;&lt;/div&gt;&lt;div&gt;&lt;br&gt;&lt;/div&gt;&lt;/div&gt;&lt;div&gt;&lt;br&gt;&lt;/div&gt;" style="text;html=1;align=center;verticalAlign=middle;resizable=0;points=[];autosize=1;strokeColor=none;fillColor=none;fontColor=#000000;" vertex="1" parent="xaOBDBP3_dZCTzAAV_ms-130">
          <mxGeometry y="66" width="231" height="70" as="geometry" />
        </mxCell>
        <mxCell id="xaOBDBP3_dZCTzAAV_ms-132" value="&lt;font style=&quot;color: rgb(255, 0, 0);&quot;&gt;MyPostsScreen&lt;/font&gt;" style="swimlane;html=1;fontStyle=1;align=center;verticalAlign=top;childLayout=stackLayout;horizontal=1;startSize=66;horizontalStack=0;resizeParent=1;resizeLast=0;collapsible=1;marginBottom=0;swimlaneFillColor=#ffffff;rounded=1;shadow=0;comic=0;labelBackgroundColor=none;strokeWidth=1;fillColor=#e1d5e7;fontFamily=Verdana;fontSize=12;sketch=1;curveFitting=1;jiggle=2;strokeColor=#9673a6;fontColor=#000000;" vertex="1" parent="1">
          <mxGeometry x="770" y="150" width="231" height="144" as="geometry" />
        </mxCell>
        <mxCell id="xaOBDBP3_dZCTzAAV_ms-133" value="&lt;div&gt;+Show(): Void&lt;/div&gt;&lt;div&gt;+ChoosePost(): Void&lt;/div&gt;" style="text;html=1;align=center;verticalAlign=middle;resizable=0;points=[];autosize=1;strokeColor=none;fillColor=none;fontColor=#000000;" vertex="1" parent="xaOBDBP3_dZCTzAAV_ms-132">
          <mxGeometry y="66" width="231" height="40" as="geometry" />
        </mxCell>
        <mxCell id="xaOBDBP3_dZCTzAAV_ms-134" value="&lt;font style=&quot;color: rgb(255, 0, 0);&quot;&gt;PostScreen&lt;/font&gt;" style="swimlane;html=1;fontStyle=1;align=center;verticalAlign=top;childLayout=stackLayout;horizontal=1;startSize=66;horizontalStack=0;resizeParent=1;resizeLast=0;collapsible=1;marginBottom=0;swimlaneFillColor=#ffffff;rounded=1;shadow=0;comic=0;labelBackgroundColor=none;strokeWidth=1;fillColor=#e1d5e7;fontFamily=Verdana;fontSize=12;sketch=1;curveFitting=1;jiggle=2;strokeColor=#9673a6;fontColor=#000000;" vertex="1" parent="1">
          <mxGeometry x="-1110" y="740" width="231" height="144" as="geometry" />
        </mxCell>
        <mxCell id="xaOBDBP3_dZCTzAAV_ms-135" value="&lt;div&gt;+RateFinderClicked(): Void&lt;/div&gt;&lt;div&gt;+Show(): Void&lt;/div&gt;" style="text;html=1;align=center;verticalAlign=middle;resizable=0;points=[];autosize=1;strokeColor=none;fillColor=none;fontColor=#000000;" vertex="1" parent="xaOBDBP3_dZCTzAAV_ms-134">
          <mxGeometry y="66" width="231" height="40" as="geometry" />
        </mxCell>
        <mxCell id="xaOBDBP3_dZCTzAAV_ms-136" value="&lt;font style=&quot;color: rgb(255, 0, 0);&quot;&gt;RatingFormScreen&lt;/font&gt;" style="swimlane;html=1;fontStyle=1;align=center;verticalAlign=top;childLayout=stackLayout;horizontal=1;startSize=66;horizontalStack=0;resizeParent=1;resizeLast=0;collapsible=1;marginBottom=0;swimlaneFillColor=#ffffff;rounded=1;shadow=0;comic=0;labelBackgroundColor=none;strokeWidth=1;fillColor=#e1d5e7;fontFamily=Verdana;fontSize=12;sketch=1;curveFitting=1;jiggle=2;strokeColor=#9673a6;fontColor=#000000;" vertex="1" parent="1">
          <mxGeometry x="-1390" y="170" width="231" height="144" as="geometry" />
        </mxCell>
        <mxCell id="xaOBDBP3_dZCTzAAV_ms-137" value="+show(): Void&lt;div&gt;&lt;br&gt;&lt;/div&gt;" style="text;html=1;align=center;verticalAlign=middle;resizable=0;points=[];autosize=1;strokeColor=none;fillColor=none;fontColor=#000000;" vertex="1" parent="xaOBDBP3_dZCTzAAV_ms-136">
          <mxGeometry y="66" width="231" height="40" as="geometry" />
        </mxCell>
        <mxCell id="xaOBDBP3_dZCTzAAV_ms-138" value="&lt;font style=&quot;&quot;&gt;BusinessMainMenu&lt;/font&gt;" style="swimlane;html=1;fontStyle=1;align=center;verticalAlign=top;childLayout=stackLayout;horizontal=1;startSize=70;horizontalStack=0;resizeParent=1;resizeLast=0;collapsible=1;marginBottom=0;swimlaneFillColor=#ffffff;rounded=1;shadow=0;comic=0;labelBackgroundColor=none;strokeWidth=1;fillColor=#e1d5e7;fontFamily=Verdana;fontSize=12;sketch=1;curveFitting=1;jiggle=2;strokeColor=#9673a6;fontColor=#000000;" vertex="1" parent="1">
          <mxGeometry x="-570" y="-820" width="277" height="130" as="geometry" />
        </mxCell>
        <mxCell id="xaOBDBP3_dZCTzAAV_ms-139" value="&lt;div&gt;+Showt(): Void&lt;/div&gt;&lt;div&gt;+AddBusinessasDropoffClicked(): Void&lt;/div&gt;&lt;div&gt;+Inventoryclicked(): Void&lt;/div&gt;" style="text;html=1;align=center;verticalAlign=middle;resizable=0;points=[];autosize=1;strokeColor=none;fillColor=none;fontColor=#000000;" vertex="1" parent="xaOBDBP3_dZCTzAAV_ms-138">
          <mxGeometry y="70" width="277" height="60" as="geometry" />
        </mxCell>
        <mxCell id="xaOBDBP3_dZCTzAAV_ms-140" value="&lt;font style=&quot;color: rgb(255, 0, 0);&quot;&gt;AddBusinessFormScreen&lt;/font&gt;" style="swimlane;html=1;fontStyle=1;align=center;verticalAlign=top;childLayout=stackLayout;horizontal=1;startSize=66;horizontalStack=0;resizeParent=1;resizeLast=0;collapsible=1;marginBottom=0;swimlaneFillColor=#ffffff;rounded=1;shadow=0;comic=0;labelBackgroundColor=none;strokeWidth=1;fillColor=#e1d5e7;fontFamily=Verdana;fontSize=12;sketch=1;curveFitting=1;jiggle=2;strokeColor=#9673a6;fontColor=#000000;" vertex="1" parent="1">
          <mxGeometry x="-700" y="-622" width="231" height="144" as="geometry" />
        </mxCell>
        <mxCell id="xaOBDBP3_dZCTzAAV_ms-141" value="+show(): Void" style="text;html=1;align=center;verticalAlign=middle;resizable=0;points=[];autosize=1;strokeColor=none;fillColor=none;fontColor=#000000;" vertex="1" parent="xaOBDBP3_dZCTzAAV_ms-140">
          <mxGeometry y="66" width="231" height="30" as="geometry" />
        </mxCell>
        <mxCell id="xaOBDBP3_dZCTzAAV_ms-142" value="&lt;font style=&quot;&quot;&gt;Inventory&lt;/font&gt;" style="swimlane;html=1;fontStyle=1;align=center;verticalAlign=top;childLayout=stackLayout;horizontal=1;startSize=66;horizontalStack=0;resizeParent=1;resizeLast=0;collapsible=1;marginBottom=0;swimlaneFillColor=#ffffff;rounded=1;shadow=0;comic=0;labelBackgroundColor=none;strokeWidth=1;fillColor=#e1d5e7;fontFamily=Verdana;fontSize=12;sketch=1;curveFitting=1;jiggle=2;strokeColor=#9673a6;fontColor=#000000;" vertex="1" parent="1">
          <mxGeometry x="-1030" y="-360" width="231" height="144" as="geometry" />
        </mxCell>
        <mxCell id="xaOBDBP3_dZCTzAAV_ms-143" value="+show(): Void&lt;div&gt;+AddItemClicked(): Void&lt;/div&gt;" style="text;html=1;align=center;verticalAlign=middle;resizable=0;points=[];autosize=1;strokeColor=none;fillColor=none;fontColor=#000000;" vertex="1" parent="xaOBDBP3_dZCTzAAV_ms-142">
          <mxGeometry y="66" width="231" height="40" as="geometry" />
        </mxCell>
        <mxCell id="xaOBDBP3_dZCTzAAV_ms-144" value="&lt;font style=&quot;&quot;&gt;ModMenu&lt;/font&gt;" style="swimlane;html=1;fontStyle=1;align=center;verticalAlign=top;childLayout=stackLayout;horizontal=1;startSize=50;horizontalStack=0;resizeParent=1;resizeLast=0;collapsible=1;marginBottom=0;swimlaneFillColor=#ffffff;rounded=1;shadow=0;comic=0;labelBackgroundColor=none;strokeWidth=1;fillColor=#e1d5e7;fontFamily=Verdana;fontSize=12;sketch=1;curveFitting=1;jiggle=2;strokeColor=#9673a6;fontColor=#000000;" vertex="1" parent="1">
          <mxGeometry x="1320" y="-140" width="277" height="120" as="geometry" />
        </mxCell>
        <mxCell id="xaOBDBP3_dZCTzAAV_ms-145" value="&lt;div&gt;+Show(): Void&lt;/div&gt;&lt;div&gt;+ReportMenuClicked(): Void&lt;/div&gt;&lt;div&gt;+UserListClicked(): Void&lt;/div&gt;" style="text;html=1;align=center;verticalAlign=middle;resizable=0;points=[];autosize=1;strokeColor=none;fillColor=none;fontColor=#000000;" vertex="1" parent="xaOBDBP3_dZCTzAAV_ms-144">
          <mxGeometry y="50" width="277" height="60" as="geometry" />
        </mxCell>
        <mxCell id="xaOBDBP3_dZCTzAAV_ms-146" style="edgeStyle=orthogonalEdgeStyle;rounded=0;orthogonalLoop=1;jettySize=auto;html=1;entryX=1;entryY=0.25;entryDx=0;entryDy=0;endArrow=diamond;endFill=1;endSize=15;fontColor=#000000;" edge="1" parent="1" source="xaOBDBP3_dZCTzAAV_ms-147" target="xaOBDBP3_dZCTzAAV_ms-84">
          <mxGeometry relative="1" as="geometry">
            <Array as="points">
              <mxPoint x="1240" y="-120" />
              <mxPoint x="490" y="-120" />
            </Array>
          </mxGeometry>
        </mxCell>
        <mxCell id="xaOBDBP3_dZCTzAAV_ms-147" value="&lt;font style=&quot;color: rgb(255, 0, 0);&quot;&gt;ReportMenuScreen&lt;/font&gt;" style="swimlane;html=1;fontStyle=1;align=center;verticalAlign=top;childLayout=stackLayout;horizontal=1;startSize=66;horizontalStack=0;resizeParent=1;resizeLast=0;collapsible=1;marginBottom=0;swimlaneFillColor=#ffffff;rounded=1;shadow=0;comic=0;labelBackgroundColor=none;strokeWidth=1;fillColor=#e1d5e7;fontFamily=Verdana;fontSize=12;sketch=1;curveFitting=1;jiggle=2;strokeColor=#9673a6;fontColor=#000000;" vertex="1" parent="1">
          <mxGeometry x="1210" y="-364" width="231" height="144" as="geometry" />
        </mxCell>
        <mxCell id="xaOBDBP3_dZCTzAAV_ms-148" value="+show(): Void&lt;div&gt;+show(): Void&lt;/div&gt;" style="text;html=1;align=center;verticalAlign=middle;resizable=0;points=[];autosize=1;strokeColor=none;fillColor=none;fontColor=#000000;" vertex="1" parent="xaOBDBP3_dZCTzAAV_ms-147">
          <mxGeometry y="66" width="231" height="40" as="geometry" />
        </mxCell>
        <mxCell id="xaOBDBP3_dZCTzAAV_ms-149" value="&lt;font style=&quot;color: rgb(255, 0, 0);&quot;&gt;UserListScreen&lt;/font&gt;" style="swimlane;html=1;fontStyle=1;align=center;verticalAlign=top;childLayout=stackLayout;horizontal=1;startSize=49;horizontalStack=0;resizeParent=1;resizeLast=0;collapsible=1;marginBottom=0;swimlaneFillColor=#ffffff;rounded=1;shadow=0;comic=0;labelBackgroundColor=none;strokeWidth=1;fillColor=#e1d5e7;fontFamily=Verdana;fontSize=12;sketch=1;curveFitting=1;jiggle=2;strokeColor=#9673a6;fontColor=#000000;" vertex="1" parent="1">
          <mxGeometry x="1650" width="231" height="144" as="geometry" />
        </mxCell>
        <mxCell id="xaOBDBP3_dZCTzAAV_ms-150" value="+show(): Void" style="text;html=1;align=center;verticalAlign=middle;resizable=0;points=[];autosize=1;strokeColor=none;fillColor=none;fontColor=#000000;" vertex="1" parent="xaOBDBP3_dZCTzAAV_ms-149">
          <mxGeometry y="49" width="231" height="30" as="geometry" />
        </mxCell>
        <mxCell id="xaOBDBP3_dZCTzAAV_ms-151" value="&lt;font style=&quot;color: rgb(255, 0, 0);&quot;&gt;ProfileHistoryScreen&lt;/font&gt;" style="swimlane;html=1;fontStyle=1;align=center;verticalAlign=top;childLayout=stackLayout;horizontal=1;startSize=66;horizontalStack=0;resizeParent=1;resizeLast=0;collapsible=1;marginBottom=0;swimlaneFillColor=#ffffff;rounded=1;shadow=0;comic=0;labelBackgroundColor=none;strokeWidth=1;fillColor=#e1d5e7;fontFamily=Verdana;fontSize=12;sketch=1;curveFitting=1;jiggle=2;strokeColor=#9673a6;fontColor=#000000;" vertex="1" parent="1">
          <mxGeometry x="1660" y="190" width="231" height="144" as="geometry" />
        </mxCell>
        <mxCell id="xaOBDBP3_dZCTzAAV_ms-152" value="&lt;div&gt;+Show(): Void&lt;/div&gt;&lt;div&gt;+&lt;span&gt;DeletesUser(): Void&lt;/span&gt;&lt;/div&gt;&lt;div&gt;&lt;span&gt;+&lt;/span&gt;no DeletesUser(): Void&lt;/div&gt;&lt;div&gt;&lt;span&gt;&lt;br&gt;&lt;/span&gt;&lt;/div&gt;" style="text;html=1;align=center;verticalAlign=middle;resizable=0;points=[];autosize=1;strokeColor=none;fillColor=none;fontColor=#000000;" vertex="1" parent="xaOBDBP3_dZCTzAAV_ms-151">
          <mxGeometry y="66" width="231" height="70" as="geometry" />
        </mxCell>
        <mxCell id="xaOBDBP3_dZCTzAAV_ms-153" value="" style="shape=table;startSize=0;container=1;collapsible=0;childLayout=tableLayout;fontColor=#000000;" vertex="1" parent="1">
          <mxGeometry x="-510" y="-1570" width="210" height="280" as="geometry" />
        </mxCell>
        <mxCell id="xaOBDBP3_dZCTzAAV_ms-154" value="" style="shape=tableRow;horizontal=0;startSize=0;swimlaneHead=0;swimlaneBody=0;strokeColor=inherit;top=0;left=0;bottom=0;right=0;collapsible=0;dropTarget=0;fillColor=none;points=[[0,0.5],[1,0.5]];portConstraint=eastwest;fontColor=#000000;" vertex="1" parent="xaOBDBP3_dZCTzAAV_ms-153">
          <mxGeometry width="210" height="47" as="geometry" />
        </mxCell>
        <mxCell id="xaOBDBP3_dZCTzAAV_ms-155" value="Association (Συσχέτιση)" style="shape=partialRectangle;html=1;whiteSpace=wrap;connectable=0;strokeColor=inherit;overflow=hidden;fillColor=none;top=0;left=0;bottom=0;right=0;pointerEvents=1;fontColor=#000000;" vertex="1" parent="xaOBDBP3_dZCTzAAV_ms-154">
          <mxGeometry width="210" height="47" as="geometry">
            <mxRectangle width="210" height="47" as="alternateBounds" />
          </mxGeometry>
        </mxCell>
        <mxCell id="xaOBDBP3_dZCTzAAV_ms-156" value="" style="shape=tableRow;horizontal=0;startSize=0;swimlaneHead=0;swimlaneBody=0;strokeColor=inherit;top=0;left=0;bottom=0;right=0;collapsible=0;dropTarget=0;fillColor=none;points=[[0,0.5],[1,0.5]];portConstraint=eastwest;fontColor=#000000;" vertex="1" parent="xaOBDBP3_dZCTzAAV_ms-153">
          <mxGeometry y="47" width="210" height="46" as="geometry" />
        </mxCell>
        <mxCell id="xaOBDBP3_dZCTzAAV_ms-157" value="&#xa;Aggregation (Συνάθροιση)&#xa;&#xa;" style="shape=partialRectangle;html=1;whiteSpace=wrap;connectable=0;strokeColor=inherit;overflow=hidden;fillColor=none;top=0;left=0;bottom=0;right=0;pointerEvents=1;fontColor=#000000;" vertex="1" parent="xaOBDBP3_dZCTzAAV_ms-156">
          <mxGeometry width="210" height="46" as="geometry">
            <mxRectangle width="210" height="46" as="alternateBounds" />
          </mxGeometry>
        </mxCell>
        <mxCell id="xaOBDBP3_dZCTzAAV_ms-158" value="" style="shape=tableRow;horizontal=0;startSize=0;swimlaneHead=0;swimlaneBody=0;strokeColor=inherit;top=0;left=0;bottom=0;right=0;collapsible=0;dropTarget=0;fillColor=none;points=[[0,0.5],[1,0.5]];portConstraint=eastwest;fontColor=#000000;" vertex="1" parent="xaOBDBP3_dZCTzAAV_ms-153">
          <mxGeometry y="93" width="210" height="47" as="geometry" />
        </mxCell>
        <mxCell id="xaOBDBP3_dZCTzAAV_ms-159" value="&#xa;Composition (Σύνθεση)&#xa;&#xa;" style="shape=partialRectangle;html=1;whiteSpace=wrap;connectable=0;strokeColor=inherit;overflow=hidden;fillColor=none;top=0;left=0;bottom=0;right=0;pointerEvents=1;fontColor=#000000;" vertex="1" parent="xaOBDBP3_dZCTzAAV_ms-158">
          <mxGeometry width="210" height="47" as="geometry">
            <mxRectangle width="210" height="47" as="alternateBounds" />
          </mxGeometry>
        </mxCell>
        <mxCell id="xaOBDBP3_dZCTzAAV_ms-160" value="" style="shape=tableRow;horizontal=0;startSize=0;swimlaneHead=0;swimlaneBody=0;strokeColor=inherit;top=0;left=0;bottom=0;right=0;collapsible=0;dropTarget=0;fillColor=none;points=[[0,0.5],[1,0.5]];portConstraint=eastwest;fontColor=#000000;" vertex="1" parent="xaOBDBP3_dZCTzAAV_ms-153">
          <mxGeometry y="140" width="210" height="47" as="geometry" />
        </mxCell>
        <mxCell id="xaOBDBP3_dZCTzAAV_ms-161" value="Inheritance (Κληρονομικότητα - Γενίκευση)" style="shape=partialRectangle;html=1;whiteSpace=wrap;connectable=0;strokeColor=inherit;overflow=hidden;fillColor=none;top=0;left=0;bottom=0;right=0;pointerEvents=1;fontColor=#000000;" vertex="1" parent="xaOBDBP3_dZCTzAAV_ms-160">
          <mxGeometry width="210" height="47" as="geometry">
            <mxRectangle width="210" height="47" as="alternateBounds" />
          </mxGeometry>
        </mxCell>
        <mxCell id="xaOBDBP3_dZCTzAAV_ms-162" value="" style="shape=tableRow;horizontal=0;startSize=0;swimlaneHead=0;swimlaneBody=0;strokeColor=inherit;top=0;left=0;bottom=0;right=0;collapsible=0;dropTarget=0;fillColor=none;points=[[0,0.5],[1,0.5]];portConstraint=eastwest;fontColor=#000000;" vertex="1" parent="xaOBDBP3_dZCTzAAV_ms-153">
          <mxGeometry y="187" width="210" height="46" as="geometry" />
        </mxCell>
        <mxCell id="xaOBDBP3_dZCTzAAV_ms-163" value="&amp;nbsp;Implementation (Υλοποίηση)" style="shape=partialRectangle;html=1;whiteSpace=wrap;connectable=0;strokeColor=inherit;overflow=hidden;fillColor=none;top=0;left=0;bottom=0;right=0;pointerEvents=1;fontColor=#000000;" vertex="1" parent="xaOBDBP3_dZCTzAAV_ms-162">
          <mxGeometry width="210" height="46" as="geometry">
            <mxRectangle width="210" height="46" as="alternateBounds" />
          </mxGeometry>
        </mxCell>
        <mxCell id="xaOBDBP3_dZCTzAAV_ms-164" value="" style="shape=tableRow;horizontal=0;startSize=0;swimlaneHead=0;swimlaneBody=0;strokeColor=inherit;top=0;left=0;bottom=0;right=0;collapsible=0;dropTarget=0;fillColor=none;points=[[0,0.5],[1,0.5]];portConstraint=eastwest;fontColor=#000000;" vertex="1" parent="xaOBDBP3_dZCTzAAV_ms-153">
          <mxGeometry y="233" width="210" height="47" as="geometry" />
        </mxCell>
        <mxCell id="xaOBDBP3_dZCTzAAV_ms-165" value="Dependency (Εξάρτηση)" style="shape=partialRectangle;html=1;whiteSpace=wrap;connectable=0;strokeColor=inherit;overflow=hidden;fillColor=none;top=0;left=0;bottom=0;right=0;pointerEvents=1;fontColor=#000000;" vertex="1" parent="xaOBDBP3_dZCTzAAV_ms-164">
          <mxGeometry width="210" height="47" as="geometry">
            <mxRectangle width="210" height="47" as="alternateBounds" />
          </mxGeometry>
        </mxCell>
        <mxCell id="xaOBDBP3_dZCTzAAV_ms-166" style="rounded=0;orthogonalLoop=1;jettySize=auto;html=1;endArrow=diamond;endFill=1;endSize=15;fontColor=#000000;" edge="1" parent="1">
          <mxGeometry relative="1" as="geometry">
            <mxPoint x="-210" y="-1450" as="sourcePoint" />
            <mxPoint x="-300" y="-1450" as="targetPoint" />
          </mxGeometry>
        </mxCell>
        <mxCell id="xaOBDBP3_dZCTzAAV_ms-167" style="rounded=0;orthogonalLoop=1;jettySize=auto;html=1;endArrow=diamond;endFill=0;endSize=15;fontColor=#000000;" edge="1" parent="1">
          <mxGeometry relative="1" as="geometry">
            <mxPoint x="-210" y="-1500" as="sourcePoint" />
            <mxPoint x="-300" y="-1500" as="targetPoint" />
          </mxGeometry>
        </mxCell>
        <mxCell id="xaOBDBP3_dZCTzAAV_ms-168" value="1" style="edgeLabel;html=1;align=center;verticalAlign=middle;resizable=0;points=[];fontColor=#000000;" vertex="1" connectable="0" parent="xaOBDBP3_dZCTzAAV_ms-167">
          <mxGeometry x="-0.9632" y="-3" relative="1" as="geometry">
            <mxPoint x="-451" y="-683" as="offset" />
          </mxGeometry>
        </mxCell>
        <mxCell id="xaOBDBP3_dZCTzAAV_ms-169" style="rounded=0;orthogonalLoop=1;jettySize=auto;html=1;endArrow=block;endFill=0;endSize=15;exitX=1;exitY=0.5;exitDx=0;exitDy=0;fontColor=#000000;" edge="1" parent="1" source="xaOBDBP3_dZCTzAAV_ms-160">
          <mxGeometry relative="1" as="geometry">
            <mxPoint x="-291.5" y="-1410" as="sourcePoint" />
            <mxPoint x="-200" y="-1406" as="targetPoint" />
          </mxGeometry>
        </mxCell>
        <mxCell id="xaOBDBP3_dZCTzAAV_ms-170" value="" style="endArrow=open;endSize=12;dashed=1;html=1;rounded=0;fillColor=#f8cecc;strokeColor=#000000;exitX=1;exitY=0.5;exitDx=0;exitDy=0;fontColor=#000000;" edge="1" parent="1" source="xaOBDBP3_dZCTzAAV_ms-164">
          <mxGeometry x="-0.0526" width="160" relative="1" as="geometry">
            <mxPoint x="-280" y="-1310" as="sourcePoint" />
            <mxPoint x="-200" y="-1313" as="targetPoint" />
            <mxPoint as="offset" />
          </mxGeometry>
        </mxCell>
        <mxCell id="xaOBDBP3_dZCTzAAV_ms-171" value="" style="endArrow=none;dashed=1;html=1;rounded=0;fontColor=#000000;" edge="1" parent="1" source="xaOBDBP3_dZCTzAAV_ms-176">
          <mxGeometry width="50" height="50" relative="1" as="geometry">
            <mxPoint x="-310" y="-1360.33" as="sourcePoint" />
            <mxPoint x="-250" y="-1360.33" as="targetPoint" />
          </mxGeometry>
        </mxCell>
        <mxCell id="xaOBDBP3_dZCTzAAV_ms-172" style="rounded=0;orthogonalLoop=1;jettySize=auto;html=1;endArrow=diamond;endFill=1;endSize=15;exitX=0.5;exitY=1;exitDx=0;exitDy=0;entryX=0.016;entryY=0.382;entryDx=0;entryDy=0;entryPerimeter=0;fontColor=#000000;" edge="1" parent="1" source="xaOBDBP3_dZCTzAAV_ms-114" target="xaOBDBP3_dZCTzAAV_ms-48">
          <mxGeometry relative="1" as="geometry">
            <mxPoint x="330" y="-640" as="sourcePoint" />
            <mxPoint x="-340" y="-640" as="targetPoint" />
            <Array as="points">
              <mxPoint x="10" y="-462" />
            </Array>
          </mxGeometry>
        </mxCell>
        <mxCell id="xaOBDBP3_dZCTzAAV_ms-173" value="1" style="edgeLabel;html=1;align=center;verticalAlign=middle;resizable=0;points=[];fontColor=#000000;" vertex="1" connectable="0" parent="xaOBDBP3_dZCTzAAV_ms-172">
          <mxGeometry x="-0.9386" relative="1" as="geometry">
            <mxPoint x="-578" y="30" as="offset" />
          </mxGeometry>
        </mxCell>
        <mxCell id="xaOBDBP3_dZCTzAAV_ms-174" value="" style="endArrow=classic;html=1;rounded=0;exitX=1;exitY=0.5;exitDx=0;exitDy=0;fontColor=#000000;" edge="1" parent="1" source="xaOBDBP3_dZCTzAAV_ms-154">
          <mxGeometry width="50" height="50" relative="1" as="geometry">
            <mxPoint x="-270" y="-1546.5" as="sourcePoint" />
            <mxPoint x="-200" y="-1546" as="targetPoint" />
          </mxGeometry>
        </mxCell>
        <mxCell id="xaOBDBP3_dZCTzAAV_ms-175" value="" style="endArrow=none;dashed=1;html=1;rounded=0;exitX=1;exitY=0.5;exitDx=0;exitDy=0;fontColor=#000000;" edge="1" parent="1" source="xaOBDBP3_dZCTzAAV_ms-162" target="xaOBDBP3_dZCTzAAV_ms-176">
          <mxGeometry width="50" height="50" relative="1" as="geometry">
            <mxPoint x="-270" y="-1330" as="sourcePoint" />
            <mxPoint x="-250" y="-1360.33" as="targetPoint" />
          </mxGeometry>
        </mxCell>
        <mxCell id="xaOBDBP3_dZCTzAAV_ms-176" value="" style="triangle;whiteSpace=wrap;html=1;rotation=0;fontColor=#000000;" vertex="1" parent="1">
          <mxGeometry x="-250" y="-1370" width="20" height="20" as="geometry" />
        </mxCell>
        <mxCell id="xaOBDBP3_dZCTzAAV_ms-177" style="rounded=0;orthogonalLoop=1;jettySize=auto;html=1;endArrow=diamond;endFill=0;endSize=15;entryX=0.5;entryY=0;entryDx=0;entryDy=0;exitX=0.004;exitY=0.224;exitDx=0;exitDy=0;exitPerimeter=0;fontColor=#000000;" edge="1" parent="1" source="xaOBDBP3_dZCTzAAV_ms-89" target="xaOBDBP3_dZCTzAAV_ms-114">
          <mxGeometry relative="1" as="geometry">
            <mxPoint x="81" y="-1000" as="sourcePoint" />
            <mxPoint x="-9" y="-1000" as="targetPoint" />
            <Array as="points">
              <mxPoint x="9" y="-1132" />
            </Array>
          </mxGeometry>
        </mxCell>
        <mxCell id="xaOBDBP3_dZCTzAAV_ms-178" value="1" style="edgeLabel;html=1;align=center;verticalAlign=middle;resizable=0;points=[];fontColor=#000000;" vertex="1" connectable="0" parent="xaOBDBP3_dZCTzAAV_ms-177">
          <mxGeometry x="-0.9632" y="-3" relative="1" as="geometry">
            <mxPoint x="-451" y="-683" as="offset" />
          </mxGeometry>
        </mxCell>
        <mxCell id="xaOBDBP3_dZCTzAAV_ms-179" style="rounded=0;orthogonalLoop=1;jettySize=auto;html=1;endArrow=diamond;endFill=0;endSize=15;entryX=0.196;entryY=0.015;entryDx=0;entryDy=0;exitX=0.75;exitY=1;exitDx=0;exitDy=0;entryPerimeter=0;fontColor=#000000;" edge="1" parent="1" source="xaOBDBP3_dZCTzAAV_ms-88" target="xaOBDBP3_dZCTzAAV_ms-118">
          <mxGeometry relative="1" as="geometry">
            <mxPoint x="620" y="-950" as="sourcePoint" />
            <mxPoint x="530" y="-950" as="targetPoint" />
          </mxGeometry>
        </mxCell>
        <mxCell id="xaOBDBP3_dZCTzAAV_ms-180" value="1" style="edgeLabel;html=1;align=center;verticalAlign=middle;resizable=0;points=[];fontColor=#000000;" vertex="1" connectable="0" parent="xaOBDBP3_dZCTzAAV_ms-179">
          <mxGeometry x="-0.9632" y="-3" relative="1" as="geometry">
            <mxPoint x="-451" y="-683" as="offset" />
          </mxGeometry>
        </mxCell>
        <mxCell id="xaOBDBP3_dZCTzAAV_ms-181" style="rounded=0;orthogonalLoop=1;jettySize=auto;html=1;endArrow=diamond;endFill=1;endSize=15;entryX=0.006;entryY=0.767;entryDx=0;entryDy=0;entryPerimeter=0;exitX=0.75;exitY=1;exitDx=0;exitDy=0;fontColor=#000000;" edge="1" parent="1" source="xaOBDBP3_dZCTzAAV_ms-112" target="xaOBDBP3_dZCTzAAV_ms-48">
          <mxGeometry relative="1" as="geometry">
            <mxPoint x="-270" y="-590" as="sourcePoint" />
            <mxPoint x="252" y="-452" as="targetPoint" />
            <Array as="points">
              <mxPoint x="-100" y="-370" />
            </Array>
          </mxGeometry>
        </mxCell>
        <mxCell id="xaOBDBP3_dZCTzAAV_ms-182" style="rounded=0;orthogonalLoop=1;jettySize=auto;html=1;endArrow=diamond;endFill=1;endSize=15;entryX=0.667;entryY=0.993;entryDx=0;entryDy=0;entryPerimeter=0;exitX=0.25;exitY=0;exitDx=0;exitDy=0;fontColor=#000000;" edge="1" parent="1" source="xaOBDBP3_dZCTzAAV_ms-124" target="xaOBDBP3_dZCTzAAV_ms-48">
          <mxGeometry relative="1" as="geometry">
            <mxPoint x="660" y="750" as="sourcePoint" />
            <mxPoint x="658" y="-212" as="targetPoint" />
            <Array as="points">
              <mxPoint x="630" y="690" />
              <mxPoint x="630" y="-220" />
              <mxPoint x="470" y="-220" />
            </Array>
          </mxGeometry>
        </mxCell>
        <mxCell id="xaOBDBP3_dZCTzAAV_ms-183" style="rounded=0;orthogonalLoop=1;jettySize=auto;html=1;endArrow=diamond;endFill=0;endSize=15;exitX=0.809;exitY=0.042;exitDx=0;exitDy=0;exitPerimeter=0;entryX=0;entryY=0.25;entryDx=0;entryDy=0;fontColor=#000000;" edge="1" parent="1" source="xaOBDBP3_dZCTzAAV_ms-65" target="xaOBDBP3_dZCTzAAV_ms-124">
          <mxGeometry relative="1" as="geometry">
            <mxPoint x="1345" y="720" as="sourcePoint" />
            <mxPoint x="680" y="770" as="targetPoint" />
            <Array as="points">
              <mxPoint x="480" y="726" />
            </Array>
          </mxGeometry>
        </mxCell>
        <mxCell id="xaOBDBP3_dZCTzAAV_ms-184" style="edgeStyle=orthogonalEdgeStyle;rounded=0;orthogonalLoop=1;jettySize=auto;html=1;exitX=0.25;exitY=1;exitDx=0;exitDy=0;entryX=1;entryY=0.25;entryDx=0;entryDy=0;endArrow=diamond;endFill=1;endSize=15;fontColor=#000000;" edge="1" parent="1" source="xaOBDBP3_dZCTzAAV_ms-185" target="xaOBDBP3_dZCTzAAV_ms-128">
          <mxGeometry relative="1" as="geometry">
            <Array as="points">
              <mxPoint x="-451" y="493" />
              <mxPoint x="-381" y="493" />
              <mxPoint x="-381" y="1232" />
            </Array>
          </mxGeometry>
        </mxCell>
        <mxCell id="xaOBDBP3_dZCTzAAV_ms-185" value="&lt;div&gt;&lt;span style=&quot;font-size: 12pt; font-family: Calibri, sans-serif; background-color: transparent; font-weight: 700; font-style: normal; font-variant: normal; text-decoration: none; vertical-align: baseline; white-space: pre-wrap;&quot; id=&quot;docs-internal-guid-55cd896a-7fff-4ad1-102f-66eb74480d65&quot;&gt;Local Business Owner&lt;/span&gt;&lt;/div&gt;&lt;div&gt;&lt;span style=&quot;font-size: 12pt; font-family: Calibri, sans-serif; background-color: transparent; font-weight: 700; font-style: normal; font-variant: normal; text-decoration: none; vertical-align: baseline; white-space: pre-wrap;&quot; id=&quot;docs-internal-guid-55cd896a-7fff-4ad1-102f-66eb74480d65&quot;&gt;&lt;span style=&quot;white-space: pre;&quot;&gt;&#x9;&lt;/span&gt;&lt;span style=&quot;white-space: pre;&quot;&gt;&#x9;&lt;/span&gt;&lt;br&gt;&lt;/span&gt;&lt;/div&gt;" style="swimlane;html=1;fontStyle=1;align=center;verticalAlign=top;childLayout=stackLayout;horizontal=1;startSize=66;horizontalStack=0;resizeParent=1;resizeLast=0;collapsible=1;marginBottom=0;swimlaneFillColor=#ffffff;rounded=1;shadow=0;comic=0;labelBackgroundColor=none;strokeWidth=1;fillColor=#e1d5e7;fontFamily=Verdana;fontSize=12;sketch=1;curveFitting=1;jiggle=2;strokeColor=#9673a6;fontColor=#000000;" vertex="1" parent="1">
          <mxGeometry x="-520" y="-380" width="277" height="196" as="geometry" />
        </mxCell>
        <mxCell id="xaOBDBP3_dZCTzAAV_ms-186" value="&lt;br&gt;&lt;div&gt;-Business ID: Integer&lt;/div&gt;&lt;div&gt;&lt;br&gt;&lt;/div&gt;&lt;div&gt;&lt;span style=&quot;&quot;&gt;+AddBusinessasDropoffClicked(): Void&lt;/span&gt;&lt;/div&gt;&lt;div&gt;&lt;span style=&quot;&quot;&gt;+Inventoryclicked(): Void&lt;/span&gt;&lt;/div&gt;&lt;div&gt;&lt;span style=&quot;&quot;&gt;+AddItemClicked(): Void&lt;/span&gt;&lt;/div&gt;&lt;div&gt;&lt;span style=&quot;&quot;&gt;+VerifyPickupclicked(): Void&lt;/span&gt;&lt;/div&gt;&lt;div&gt;&lt;span style=&quot;&quot;&gt;+NoVerifyPickupClicked(): Void&lt;/span&gt;&lt;/div&gt;" style="text;html=1;align=center;verticalAlign=middle;resizable=0;points=[];autosize=1;strokeColor=none;fillColor=none;fontColor=#000000;" vertex="1" parent="xaOBDBP3_dZCTzAAV_ms-185">
          <mxGeometry y="66" width="277" height="130" as="geometry" />
        </mxCell>
        <mxCell id="xaOBDBP3_dZCTzAAV_ms-187" style="edgeStyle=orthogonalEdgeStyle;rounded=0;orthogonalLoop=1;jettySize=auto;html=1;endArrow=diamond;endFill=1;endSize=15;entryX=0.73;entryY=1.019;entryDx=0;entryDy=0;entryPerimeter=0;exitX=0.111;exitY=0.012;exitDx=0;exitDy=0;exitPerimeter=0;fontColor=#000000;" edge="1" parent="1" source="xaOBDBP3_dZCTzAAV_ms-120" target="xaOBDBP3_dZCTzAAV_ms-43">
          <mxGeometry relative="1" as="geometry">
            <Array as="points">
              <mxPoint x="-608" y="611" />
              <mxPoint x="-608" y="290" />
            </Array>
            <mxPoint x="-243" y="460" as="sourcePoint" />
            <mxPoint x="-761.04" y="398.5999999999999" as="targetPoint" />
          </mxGeometry>
        </mxCell>
        <mxCell id="xaOBDBP3_dZCTzAAV_ms-188" style="edgeStyle=orthogonalEdgeStyle;rounded=0;orthogonalLoop=1;jettySize=auto;html=1;endArrow=diamond;endFill=1;endSize=15;entryX=0.75;entryY=1;entryDx=0;entryDy=0;exitX=1;exitY=0.75;exitDx=0;exitDy=0;fontColor=#000000;" edge="1" parent="1" source="xaOBDBP3_dZCTzAAV_ms-120" target="xaOBDBP3_dZCTzAAV_ms-27">
          <mxGeometry relative="1" as="geometry">
            <Array as="points">
              <mxPoint x="-359" y="716" />
              <mxPoint x="-359" y="1260" />
              <mxPoint x="1499" y="1260" />
            </Array>
            <mxPoint x="-359" y="680" as="sourcePoint" />
            <mxPoint x="-360" y="357.5" as="targetPoint" />
          </mxGeometry>
        </mxCell>
        <mxCell id="xaOBDBP3_dZCTzAAV_ms-190" style="rounded=0;orthogonalLoop=1;jettySize=auto;html=1;endArrow=diamond;endFill=1;endSize=15;exitX=0.75;exitY=1;exitDx=0;exitDy=0;entryX=0.578;entryY=0.011;entryDx=0;entryDy=0;entryPerimeter=0;fontColor=#000000;" edge="1" parent="1" source="xaOBDBP3_dZCTzAAV_ms-138" target="xaOBDBP3_dZCTzAAV_ms-185">
          <mxGeometry relative="1" as="geometry">
            <mxPoint x="-386.5" y="-650" as="sourcePoint" />
            <mxPoint x="-360" y="-390" as="targetPoint" />
          </mxGeometry>
        </mxCell>
        <mxCell id="xaOBDBP3_dZCTzAAV_ms-191" style="rounded=0;orthogonalLoop=1;jettySize=auto;html=1;endArrow=diamond;endFill=1;endSize=15;entryX=0.017;entryY=0.134;entryDx=0;entryDy=0;exitX=0.5;exitY=1;exitDx=0;exitDy=0;entryPerimeter=0;fontColor=#000000;" edge="1" parent="1" source="xaOBDBP3_dZCTzAAV_ms-140" target="xaOBDBP3_dZCTzAAV_ms-185">
          <mxGeometry relative="1" as="geometry">
            <mxPoint x="-590" y="-670" as="sourcePoint" />
            <mxPoint x="-680" y="-670" as="targetPoint" />
            <Array as="points">
              <mxPoint x="-580" y="-356" />
            </Array>
          </mxGeometry>
        </mxCell>
        <mxCell id="xaOBDBP3_dZCTzAAV_ms-192" style="rounded=0;orthogonalLoop=1;jettySize=auto;html=1;endArrow=diamond;endFill=1;endSize=15;entryX=1.014;entryY=0.367;entryDx=0;entryDy=0;entryPerimeter=0;exitX=0;exitY=0.75;exitDx=0;exitDy=0;fontColor=#000000;" edge="1" parent="1" source="xaOBDBP3_dZCTzAAV_ms-132" target="xaOBDBP3_dZCTzAAV_ms-43">
          <mxGeometry relative="1" as="geometry">
            <mxPoint x="-425" y="164" as="sourcePoint" />
            <mxPoint x="-515" y="164" as="targetPoint" />
            <Array as="points">
              <mxPoint x="730" y="260" />
              <mxPoint x="730" y="320" />
              <mxPoint x="-470" y="330" />
              <mxPoint x="-470" y="159" />
            </Array>
          </mxGeometry>
        </mxCell>
        <mxCell id="xaOBDBP3_dZCTzAAV_ms-193" style="rounded=0;orthogonalLoop=1;jettySize=auto;html=1;endArrow=diamond;endFill=1;endSize=15;entryX=0.015;entryY=0.11;entryDx=0;entryDy=0;entryPerimeter=0;exitX=0.5;exitY=1;exitDx=0;exitDy=0;fontColor=#000000;" edge="1" parent="1" source="xaOBDBP3_dZCTzAAV_ms-132" target="xaOBDBP3_dZCTzAAV_ms-27">
          <mxGeometry relative="1" as="geometry">
            <mxPoint x="940" y="330" as="sourcePoint" />
            <mxPoint x="850" y="330" as="targetPoint" />
            <Array as="points">
              <mxPoint x="886" y="448" />
            </Array>
          </mxGeometry>
        </mxCell>
        <mxCell id="xaOBDBP3_dZCTzAAV_ms-194" style="edgeStyle=orthogonalEdgeStyle;rounded=0;orthogonalLoop=1;jettySize=auto;html=1;entryX=1.006;entryY=0.555;entryDx=0;entryDy=0;entryPerimeter=0;endArrow=diamond;endFill=1;endSize=15;fontColor=#000000;" edge="1" parent="1" source="xaOBDBP3_dZCTzAAV_ms-144" target="xaOBDBP3_dZCTzAAV_ms-85">
          <mxGeometry relative="1" as="geometry">
            <Array as="points">
              <mxPoint x="491" y="-90" />
            </Array>
          </mxGeometry>
        </mxCell>
        <mxCell id="xaOBDBP3_dZCTzAAV_ms-195" value="&lt;font style=&quot;color: rgb(255, 0, 0);&quot;&gt;ReportScreen&lt;/font&gt;" style="swimlane;html=1;fontStyle=1;align=center;verticalAlign=top;childLayout=stackLayout;horizontal=1;startSize=66;horizontalStack=0;resizeParent=1;resizeLast=0;collapsible=1;marginBottom=0;swimlaneFillColor=#ffffff;rounded=1;shadow=0;comic=0;labelBackgroundColor=none;strokeWidth=1;fillColor=#e1d5e7;fontFamily=Verdana;fontSize=12;sketch=1;curveFitting=1;jiggle=2;strokeColor=#9673a6;fontColor=#000000;" vertex="1" parent="1">
          <mxGeometry x="1680" y="-250" width="231" height="144" as="geometry" />
        </mxCell>
        <mxCell id="xaOBDBP3_dZCTzAAV_ms-196" value="&lt;div&gt;+Show(): Void&lt;/div&gt;&lt;div&gt;+&lt;span&gt;AcceptClicked(): Void&lt;/span&gt;&lt;/div&gt;&lt;div&gt;&lt;span&gt;+&lt;/span&gt;DeclineClicked(): Void&lt;/div&gt;" style="text;html=1;align=center;verticalAlign=middle;resizable=0;points=[];autosize=1;strokeColor=none;fillColor=none;fontColor=#000000;" vertex="1" parent="xaOBDBP3_dZCTzAAV_ms-195">
          <mxGeometry y="66" width="231" height="60" as="geometry" />
        </mxCell>
        <mxCell id="xaOBDBP3_dZCTzAAV_ms-197" style="rounded=0;orthogonalLoop=1;jettySize=auto;html=1;endArrow=diamond;endFill=1;endSize=15;entryX=0.119;entryY=1.016;entryDx=0;entryDy=0;entryPerimeter=0;exitX=0;exitY=0.75;exitDx=0;exitDy=0;fontColor=#000000;" edge="1" parent="1" source="xaOBDBP3_dZCTzAAV_ms-122" target="xaOBDBP3_dZCTzAAV_ms-43">
          <mxGeometry relative="1" as="geometry">
            <mxPoint x="-720" y="1434.5713588169642" as="sourcePoint" />
            <mxPoint x="-559.5" y="380" as="targetPoint" />
            <Array as="points">
              <mxPoint x="-750" y="1070" />
            </Array>
          </mxGeometry>
        </mxCell>
        <mxCell id="xaOBDBP3_dZCTzAAV_ms-198" style="edgeStyle=orthogonalEdgeStyle;rounded=0;orthogonalLoop=1;jettySize=auto;html=1;exitX=-0.011;exitY=0.06;exitDx=0;exitDy=0;entryX=0.169;entryY=0.056;entryDx=0;entryDy=0;entryPerimeter=0;exitPerimeter=0;fontColor=#000000;" edge="1" parent="1" source="xaOBDBP3_dZCTzAAV_ms-42" target="xaOBDBP3_dZCTzAAV_ms-134">
          <mxGeometry relative="1" as="geometry">
            <Array as="points">
              <mxPoint x="-770" y="36" />
              <mxPoint x="-770" y="40" />
              <mxPoint x="-1071" y="40" />
            </Array>
          </mxGeometry>
        </mxCell>
        <mxCell id="xaOBDBP3_dZCTzAAV_ms-199" style="rounded=0;orthogonalLoop=1;jettySize=auto;html=1;endArrow=diamond;endFill=1;endSize=15;entryX=-0.011;entryY=0.326;entryDx=0;entryDy=0;entryPerimeter=0;exitX=1;exitY=0.25;exitDx=0;exitDy=0;fontColor=#000000;" edge="1" parent="1" source="xaOBDBP3_dZCTzAAV_ms-142" target="xaOBDBP3_dZCTzAAV_ms-185">
          <mxGeometry relative="1" as="geometry">
            <mxPoint x="-580" y="-302" as="sourcePoint" />
            <mxPoint x="-670" y="-302" as="targetPoint" />
          </mxGeometry>
        </mxCell>
        <mxCell id="xaOBDBP3_dZCTzAAV_ms-200" style="rounded=0;orthogonalLoop=1;jettySize=auto;html=1;endArrow=diamond;endFill=1;endSize=15;entryX=1.001;entryY=0.812;entryDx=0;entryDy=0;entryPerimeter=0;exitX=0;exitY=0.25;exitDx=0;exitDy=0;fontColor=#000000;" edge="1" parent="1" source="xaOBDBP3_dZCTzAAV_ms-151" target="xaOBDBP3_dZCTzAAV_ms-85">
          <mxGeometry relative="1" as="geometry">
            <mxPoint x="900" y="-60" as="sourcePoint" />
            <mxPoint x="810" y="-60" as="targetPoint" />
            <Array as="points">
              <mxPoint x="1190" y="230" />
              <mxPoint x="1190" y="-60" />
            </Array>
          </mxGeometry>
        </mxCell>
        <mxCell id="xaOBDBP3_dZCTzAAV_ms-201" style="rounded=0;orthogonalLoop=1;jettySize=auto;html=1;endArrow=diamond;endFill=1;endSize=15;entryX=1;entryY=0.25;entryDx=0;entryDy=0;fontColor=#000000;" edge="1" parent="1" target="xaOBDBP3_dZCTzAAV_ms-27">
          <mxGeometry relative="1" as="geometry">
            <mxPoint x="1650" y="704" as="sourcePoint" />
            <mxPoint x="1570" y="630" as="targetPoint" />
            <Array as="points">
              <mxPoint x="1650" y="473" />
            </Array>
          </mxGeometry>
        </mxCell>
        <mxCell id="xaOBDBP3_dZCTzAAV_ms-202" value="0..*" style="edgeLabel;html=1;align=center;verticalAlign=middle;resizable=0;points=[];fontColor=#000000;" connectable="0" vertex="1" parent="xaOBDBP3_dZCTzAAV_ms-201">
          <mxGeometry x="-0.8462" relative="1" as="geometry">
            <mxPoint y="1" as="offset" />
          </mxGeometry>
        </mxCell>
        <mxCell id="xaOBDBP3_dZCTzAAV_ms-203" value="1" style="edgeLabel;html=1;align=center;verticalAlign=middle;resizable=0;points=[];fontColor=#000000;" connectable="0" vertex="1" parent="xaOBDBP3_dZCTzAAV_ms-201">
          <mxGeometry x="0.7653" y="4" relative="1" as="geometry">
            <mxPoint as="offset" />
          </mxGeometry>
        </mxCell>
        <mxCell id="xaOBDBP3_dZCTzAAV_ms-204" style="rounded=0;orthogonalLoop=1;jettySize=auto;html=1;endArrow=diamond;endFill=1;endSize=15;fontColor=#000000;entryX=0.5;entryY=1;entryDx=0;entryDy=0;exitX=1;exitY=0.25;exitDx=0;exitDy=0;" edge="1" parent="1" source="xaOBDBP3_dZCTzAAV_ms-101" target="xaOBDBP3_dZCTzAAV_ms-27">
          <mxGeometry relative="1" as="geometry">
            <mxPoint x="1010" y="1030" as="sourcePoint" />
            <mxPoint x="930" y="1030" as="targetPoint" />
            <Array as="points">
              <mxPoint x="1450" y="1027" />
            </Array>
          </mxGeometry>
        </mxCell>
        <mxCell id="xaOBDBP3_dZCTzAAV_ms-209" value="0..*" style="text;html=1;align=center;verticalAlign=middle;whiteSpace=wrap;rounded=0;" vertex="1" parent="1">
          <mxGeometry x="700" y="1011" width="60" height="30" as="geometry" />
        </mxCell>
        <mxCell id="xaOBDBP3_dZCTzAAV_ms-210" style="rounded=0;orthogonalLoop=1;jettySize=auto;html=1;endArrow=diamond;endFill=1;endSize=15;fontColor=#000000;exitX=0;exitY=0.25;exitDx=0;exitDy=0;entryX=1.001;entryY=0.633;entryDx=0;entryDy=0;entryPerimeter=0;" edge="1" parent="1" source="xaOBDBP3_dZCTzAAV_ms-101" target="xaOBDBP3_dZCTzAAV_ms-43">
          <mxGeometry relative="1" as="geometry">
            <mxPoint x="50" y="1070" as="sourcePoint" />
            <mxPoint x="-300" y="600" as="targetPoint" />
            <Array as="points">
              <mxPoint x="-230" y="1027" />
              <mxPoint x="-230" y="213" />
            </Array>
          </mxGeometry>
        </mxCell>
        <mxCell id="xaOBDBP3_dZCTzAAV_ms-211" value="1" style="text;html=1;align=center;verticalAlign=middle;whiteSpace=wrap;rounded=0;" vertex="1" parent="1">
          <mxGeometry x="-529" y="190" width="60" height="30" as="geometry" />
        </mxCell>
        <mxCell id="xaOBDBP3_dZCTzAAV_ms-212" value="0..*" style="text;html=1;align=center;verticalAlign=middle;whiteSpace=wrap;rounded=0;" vertex="1" parent="1">
          <mxGeometry x="160" y="1011" width="60" height="30" as="geometry" />
        </mxCell>
      </root>
    </mxGraphModel>
  </diagram>
</mxfile>
